<svg width="48" height="49" viewBox="0 0 48 49" fill="none" xmlns="http://www.w3.org/2000/svg">
<path d="M23.9752 0.319824C27.2939 0.319824 30.4029 0.957636 33.302 2.23326C36.2012 3.50888 38.7284 5.23871 40.8837 7.42273C43.039 9.60675 44.746 12.1677 46.0049 15.1055C47.2637 18.0433 47.8931 21.1937 47.8931 24.5567C47.8931 27.9197 47.2637 31.0701 46.0049 34.0079C44.746 36.9457 43.039 39.5163 40.8837 41.7196C38.7284 43.923 36.2012 45.6625 33.302 46.9381C30.4029 48.2137 27.2939 48.8515 23.9752 48.8515C20.6564 48.8515 17.5475 48.2137 14.6483 46.9381C11.7492 45.6625 9.21242 43.923 7.03806 41.7196C4.8637 39.5163 3.1471 36.9457 1.88826 34.0079C0.62942 31.0701 0 27.9197 0 24.5567C0 21.1937 0.62942 18.0433 1.88826 15.1055C3.1471 12.1677 4.8637 9.60675 7.03806 7.42273C9.21242 5.23871 11.7492 3.50888 14.6483 2.23326C17.5475 0.957636 20.6564 0.319824 23.9752 0.319824ZM31.5282 29.7751C32.2148 29.1953 32.7966 28.4995 33.2734 27.6878C33.7502 26.876 34.1413 25.9869 34.4464 25.0205C34.7516 24.0542 34.9614 23.0781 35.0758 22.0924C35.1903 21.1067 35.1903 20.15 35.0758 19.2223C34.9614 18.2172 34.6562 17.2412 34.1603 16.2941C33.6644 15.3471 33.0159 14.5063 32.2148 13.7719C31.4138 13.0374 30.4982 12.4189 29.4683 11.9164C28.4383 11.4139 27.3511 11.1046 26.2067 10.9887C24.452 10.7954 22.764 10.9114 21.1428 11.3366C19.5215 11.7618 18.091 12.4286 16.8513 13.337C15.6115 14.2454 14.6102 15.3761 13.8472 16.729C13.0843 18.0819 12.7028 19.6088 12.7028 21.3096C12.7028 22.9332 12.9889 24.2474 13.5611 25.2525C14.1333 26.2575 15.1442 27.0306 16.5938 27.5718C17.0897 27.1079 17.3472 26.6731 17.3663 26.2672C17.3853 25.8613 17.2995 25.4554 17.1088 25.0495C16.918 24.6437 16.6892 24.2184 16.4221 23.7739C16.1551 23.3294 16.0025 22.8365 15.9644 22.2953C15.8118 20.8651 16.0884 19.5025 16.7941 18.2076C17.4998 16.9126 18.4439 15.8592 19.6265 15.0475C20.809 14.2357 22.1632 13.7525 23.6891 13.5979C25.2149 13.4433 26.7408 13.8105 28.2667 14.6996C28.9915 15.1248 29.5637 15.7336 29.9833 16.526C30.4029 17.3185 30.6985 18.2076 30.8702 19.1933C31.0418 20.179 31.08 21.2033 30.9846 22.2664C30.8892 23.3294 30.6604 24.3054 30.298 25.1945C29.9356 26.0836 29.4492 26.8567 28.8389 27.5138C28.2285 28.1709 27.5037 28.5768 26.6645 28.7315C26.1305 28.8474 25.5869 28.8378 25.0337 28.7025C24.4806 28.5672 24.0896 28.3836 23.8607 28.1516C23.2504 27.5718 23.0024 26.9147 23.1169 26.1802C23.2313 25.4458 23.4411 24.6533 23.7463 23.8029C24.0515 22.9525 24.328 22.0827 24.576 21.1937C24.8239 20.3046 24.7762 19.4542 24.4329 18.6424C24.1278 17.9466 23.6986 17.5311 23.1455 17.3958C22.5924 17.2605 22.0488 17.3281 21.5147 17.5987C20.9807 17.8693 20.4943 18.2752 20.0556 18.8164C19.6169 19.3575 19.3404 19.9374 19.2259 20.5559C19.1496 21.213 19.2068 21.8605 19.3976 22.4983C19.5883 23.1361 19.6837 23.7642 19.6837 24.3827C19.6837 25.0785 19.5883 25.8226 19.3976 26.6151C19.2068 27.4075 18.9875 28.2193 18.7395 29.0504C18.4916 29.8814 18.2436 30.6932 17.9957 31.4856C17.7477 32.2781 17.5665 33.0222 17.4521 33.718C17.3758 34.2592 17.309 34.9936 17.2518 35.9213C17.1946 36.8491 17.2423 37.6028 17.3949 38.1827L17.3377 38.2406H19.2259C19.8744 37.1196 20.4275 35.8054 20.8853 34.2978C21.3431 32.7903 21.7436 31.3407 22.0869 29.9491C22.2776 29.7558 22.4207 29.7945 22.5161 30.0651C22.6114 30.3356 22.7545 30.5289 22.9452 30.6449C23.5174 31.1087 24.2041 31.389 25.0051 31.4856C25.8062 31.5823 26.6073 31.5726 27.4084 31.4566C28.2094 31.3407 28.9819 31.1281 29.7258 30.8188C30.4696 30.5096 31.0704 30.1617 31.5282 29.7751Z" fill="#264C4D"/>
</svg>
