<svg width="27" height="21" viewBox="0 0 27 21" fill="none" xmlns="http://www.w3.org/2000/svg">
<path d="M16.9178 20.058C16.6426 20.058 16.3673 19.9552 16.1501 19.7351C15.73 19.3094 15.73 18.6048 16.1501 18.1791L24.175 10.0472L16.1501 1.91524C15.73 1.48955 15.73 0.78498 16.1501 0.359299C16.5701 -0.066381 17.2654 -0.066381 17.6855 0.359299L26.4782 9.2692C26.8983 9.69488 26.8983 10.3995 26.4782 10.8251L17.6855 19.7351C17.4682 19.9552 17.193 20.058 16.9178 20.058Z" fill="#264C4D"/>
<path d="M25.4655 11.1482H1.08641C0.492507 11.1482 0 10.649 0 10.0471C0 9.4452 0.492507 8.94604 1.08641 8.94604H25.4655C26.0594 8.94604 26.5519 9.4452 26.5519 10.0471C26.5519 10.649 26.0594 11.1482 25.4655 11.1482Z" fill="#264C4D"/>
</svg>
