<?xml version="1.0" encoding="utf-8"?>
<!-- Generator: Adobe Illustrator 27.5.0, SVG Export Plug-In . SVG Version: 6.00 Build 0)  -->
<svg version="1.1" id="Calque_1" xmlns="http://www.w3.org/2000/svg" xmlns:xlink="http://www.w3.org/1999/xlink" x="0px" y="0px"
	 viewBox="0 0 70 60" enable-background="new 0 0 70 60" xml:space="preserve">
<g>
	<path d="M20.93,2.05H2.44c-0.53,0-0.94,0.41-0.94,0.94v53.45c0,0.53,0.41,0.94,0.94,0.94c0.58,0,1.03-0.4,1.03-0.94V31.71h17.47
		c8.62,0,14.87-6.25,14.87-14.87C35.8,8.68,29.13,2.05,20.93,2.05z M20.93,29.74H3.55V4.01h17.38c3.46,0,6.7,1.33,9.14,3.76
		c2.43,2.42,3.77,5.64,3.77,9.06C33.84,24.43,28.53,29.74,20.93,29.74z"/>
	<path d="M30.98,43.7c0-7.86,6.4-14.26,14.26-14.26s14.26,6.4,14.26,14.26c0,7.86-6.4,14.26-14.26,14.26S30.98,51.55,30.98,43.7z
		 M32.9,43.7c0,6.81,5.53,12.34,12.34,12.34s12.34-5.53,12.34-12.34c0-6.81-5.53-12.34-12.34-12.34S32.9,36.89,32.9,43.7z"/>
	<path d="M66.3,57.95c-1.18,0-2.14-0.96-2.14-2.14c0-1.18,0.96-2.2,2.14-2.2c1.24,0,2.2,1.02,2.2,2.2
		C68.5,56.99,67.54,57.95,66.3,57.95z"/>
</g>
<g>
</g>
<g>
</g>
<g>
</g>
<g>
</g>
<g>
</g>
</svg>
