<svg width="139" height="139" viewBox="0 0 139 139" fill="none" xmlns="http://www.w3.org/2000/svg">
<path d="M69.1668 118.032C95.9812 118.032 117.719 96.1786 117.719 69.2214C117.719 42.2643 95.9812 20.4111 69.1668 20.4111C42.3523 20.4111 20.615 42.2643 20.615 69.2214C20.615 96.1786 42.3523 118.032 69.1668 118.032Z" stroke="#EEE8E4" stroke-miterlimit="10"/>
<path d="M51.0607 121.397C50.857 121.919 50.4823 122.241 49.9353 122.363C49.5923 122.44 49.2118 122.397 48.7937 122.234C48.6157 122.165 48.4222 122.068 48.2124 121.943L47.3192 124.236C47.2712 124.36 47.2459 124.44 47.2438 124.476C47.2405 124.562 47.2802 124.63 47.3629 124.68C47.5059 124.761 47.6481 124.829 47.7889 124.883C47.8467 124.906 47.868 124.936 47.8532 124.974C47.8326 125.027 47.7853 125.04 47.712 125.012C47.681 124.999 47.6546 124.989 47.6337 124.981C47.3459 124.869 46.8055 124.658 46.0112 124.349L45.9094 124.309C45.7527 124.249 45.6844 124.191 45.7057 124.137C45.7205 124.099 45.7826 124.102 45.8924 124.144C46.1383 124.24 46.2885 124.271 46.3441 124.237C46.3942 124.231 46.4386 124.187 46.4776 124.103L48.3355 119.332C48.4005 119.165 48.3958 119.045 48.3218 118.972C48.2781 118.931 48.1908 118.884 48.0601 118.833L47.9817 118.803C47.9658 118.797 47.9474 118.789 47.9268 118.781C47.8485 118.751 47.8178 118.714 47.8348 118.67C47.8532 118.622 47.9359 118.627 48.0821 118.683L49.8068 119.355C50.4021 119.587 50.7967 119.865 50.9895 120.188C51.2091 120.552 51.2325 120.956 51.0607 121.397ZM50.235 121.084C50.5512 120.271 50.3801 119.737 49.7223 119.481C49.5028 119.396 49.3439 119.377 49.2468 119.427C49.2028 119.447 49.1544 119.525 49.1017 119.66L48.2597 121.822C48.2994 121.843 48.3453 121.864 48.398 121.885C48.7428 122.019 49.0659 122.055 49.3678 121.991C49.7407 121.912 50.0299 121.609 50.235 121.084Z" fill="#EEE8E4"/>
<path d="M61.3485 128.544C61.3387 128.592 61.2929 128.609 61.2106 128.593C61.1553 128.583 61.1059 128.57 61.0633 128.556L60.0199 128.324L58.9638 128.16C58.9241 128.158 58.8826 128.153 58.8385 128.145C58.7281 128.124 58.6786 128.084 58.6898 128.024C58.7024 127.959 58.7829 127.94 58.9313 127.968C59.4176 128.054 59.6693 128.05 59.687 127.956C59.6877 127.95 59.6863 127.927 59.6823 127.886L59.6577 127.648L59.6382 127.521C59.6216 127.335 59.5743 126.923 59.4953 126.285L57.7287 125.951C57.2265 126.797 56.9626 127.288 56.9369 127.424C56.9221 127.503 56.946 127.558 57.0088 127.587C57.0247 127.596 57.1601 127.633 57.4157 127.7C57.5745 127.736 57.6489 127.779 57.6395 127.83C57.6287 127.886 57.5514 127.901 57.4085 127.874C57.155 127.826 56.8622 127.759 56.5304 127.673C56.4488 127.652 56.364 127.632 56.2759 127.616C56.1878 127.599 56.1008 127.593 56.0145 127.596C55.9686 127.597 55.9318 127.595 55.9044 127.59C55.8271 127.575 55.7935 127.542 55.8033 127.491C55.813 127.44 55.9051 127.428 56.0798 127.455C56.2539 127.482 56.3849 127.478 56.4712 127.445C56.5571 127.411 56.6355 127.33 56.7052 127.201C57.8103 125.239 58.7053 123.666 59.3906 122.48C59.4158 122.415 59.4559 122.345 59.5108 122.268L59.5754 122.119C59.6036 122.06 59.6314 122.033 59.6592 122.038C59.6758 122.041 59.6863 122.061 59.6906 122.097C59.7206 122.332 59.7953 122.826 59.9155 123.577C60.0097 124.165 60.2419 125.641 60.6109 128.003C60.6311 128.14 60.6719 128.233 60.7343 128.281C60.7968 128.329 60.9344 128.376 61.1485 128.422C61.2907 128.455 61.3571 128.496 61.3485 128.544ZM59.4945 126.082C59.453 125.809 59.3844 125.358 59.2887 124.729L59.1147 123.473C58.7634 124.057 58.3298 124.821 57.8135 125.764L59.4945 126.082Z" fill="#EEE8E4"/>
<path d="M72.7743 128.859C72.7753 129.102 72.5793 129.224 72.1869 129.226C71.75 129.229 71.4066 129.043 71.1579 128.669C71.0499 128.508 70.9806 128.352 70.9492 128.202C70.9178 128.052 70.8691 127.671 70.8044 127.059C70.7687 126.69 70.6521 126.429 70.4553 126.277C70.2578 126.125 69.9379 126.044 69.4949 126.035L69.5097 128.764C69.5105 128.88 69.6007 128.952 69.7802 128.98C69.8311 128.985 69.9596 128.99 70.1672 128.995C70.2405 128.995 70.277 129.017 70.277 129.063C70.2773 129.116 70.23 129.142 70.1343 129.142L70.0336 129.143C69.9831 129.143 69.7394 129.145 69.3018 129.147C69.2177 129.148 69.0747 129.148 68.8725 129.149C68.6761 129.15 68.5476 129.151 68.4858 129.152L68.1577 129.153C68.0345 129.154 67.9724 129.128 67.9721 129.076C67.9721 129.036 68.0533 129.013 68.2161 129.006C68.4793 128.998 68.622 128.963 68.6447 128.9C68.6667 128.87 68.6776 128.758 68.6761 128.561L68.6501 123.778C68.649 123.547 68.6241 123.409 68.5761 123.363C68.5281 123.317 68.3837 123.292 68.1425 123.287C68.0024 123.288 67.9324 123.263 67.932 123.21C67.932 123.153 67.9764 123.123 68.0663 123.123C68.0826 123.123 68.1082 123.126 68.1421 123.131L69.261 123.151C69.3733 123.151 69.5303 123.146 69.7321 123.137C69.956 123.12 70.1134 123.112 70.2026 123.111C70.7243 123.108 71.1388 123.226 71.4456 123.464C71.7525 123.703 71.907 124.027 71.9092 124.437C71.9114 124.841 71.7558 125.175 71.4435 125.44C71.1308 125.704 70.7055 125.861 70.1676 125.911C70.117 125.917 70.0892 125.925 70.0834 125.937C70.0834 125.96 70.1112 125.972 70.1676 125.972C70.7571 126.072 71.1629 126.283 71.3864 126.603C71.6096 126.924 71.7597 127.503 71.8374 128.343C71.885 128.818 72.0432 129.054 72.3121 129.053C72.3959 129.052 72.4385 129.035 72.4381 129C72.4381 128.995 72.4352 128.989 72.4298 128.983C72.4013 128.92 72.3872 128.868 72.3872 128.827C72.3865 128.706 72.4475 128.645 72.571 128.644C72.7057 128.643 72.7732 128.715 72.7743 128.859ZM71.0095 124.527C71.0052 123.702 70.6553 123.29 69.9603 123.294C69.7751 123.295 69.6487 123.322 69.5816 123.374C69.5148 123.427 69.4816 123.519 69.4827 123.652L69.4946 125.853C70.0329 125.856 70.4203 125.753 70.6579 125.544C70.8943 125.334 71.012 124.995 71.0095 124.527Z" fill="#EEE8E4"/>
<path d="M81.8418 127.899C81.8501 127.947 81.8215 127.977 81.7555 127.989L81.6724 128.004C81.6363 127.992 81.2594 128.051 80.5424 128.18C80.4041 128.205 80.2669 128.235 80.1312 128.272C80.0604 128.29 79.9503 128.313 79.8015 128.339C79.73 128.352 79.6896 128.333 79.6802 128.282C79.6719 128.237 79.7391 128.198 79.8817 128.167C80.1012 128.121 80.2265 128.071 80.2561 128.016C80.2861 127.96 80.2763 127.793 80.2258 127.513L79.4177 123.014C79.3672 122.734 79.3253 122.58 79.2914 122.551C79.2473 122.5 79.0874 122.494 78.8112 122.531C78.7043 122.545 78.6477 122.534 78.6412 122.499C78.6336 122.454 78.6628 122.425 78.7292 122.414L79.8553 122.211C79.9384 122.196 80.1005 122.17 80.3409 122.133L80.6565 122.067C80.7453 122.051 80.794 122.067 80.8027 122.116C80.8106 122.159 80.6922 122.208 80.4485 122.263C80.3099 122.294 80.2294 122.334 80.207 122.386C80.1842 122.437 80.19 122.559 80.2254 122.752L81.0435 127.306C81.1013 127.63 81.1468 127.804 81.18 127.828C81.2518 127.879 81.4378 127.884 81.7378 127.842C81.7977 127.831 81.8327 127.85 81.8418 127.899Z" fill="#EEE8E4"/>
<path d="M91.7642 123.343C91.9306 123.812 91.8996 124.272 91.6703 124.724C91.4414 125.177 91.084 125.489 90.598 125.662C90.3125 125.763 89.9402 125.795 89.4792 125.756C89.3564 125.745 89.2683 125.749 89.2156 125.767C89.1524 125.79 89.1394 125.88 89.1774 126.036C89.1997 126.115 89.1795 126.166 89.116 126.189C89.0633 126.208 89.025 126.184 89.0019 126.119C88.9864 126.076 88.9773 126.042 88.9755 126.019C88.8994 125.672 88.8113 125.357 88.7105 125.073C88.6914 125.02 88.6322 124.869 88.5325 124.622C88.5152 124.591 88.4972 124.549 88.4784 124.494C88.4491 124.412 88.4665 124.36 88.53 124.338C88.5827 124.319 88.643 124.372 88.7109 124.496C89.1965 125.425 89.8164 125.756 90.5724 125.488C90.8948 125.373 91.1104 125.19 91.2212 124.939C91.3313 124.689 91.3252 124.391 91.2035 124.049C91.0948 123.744 90.9168 123.515 90.6688 123.361C90.4204 123.207 90.05 123.098 89.5575 123.034C88.964 122.957 88.5275 122.833 88.2473 122.664C87.9661 122.493 87.7628 122.232 87.6375 121.878C87.4769 121.426 87.4855 121.003 87.6635 120.608C87.8419 120.214 88.1477 119.939 88.5806 119.786C88.7604 119.722 89.0311 119.696 89.3925 119.709C89.5193 119.713 89.6084 119.705 89.6611 119.686C89.7193 119.666 89.7536 119.642 89.7648 119.613C89.7749 119.585 89.7723 119.521 89.755 119.424C89.7467 119.365 89.7655 119.328 89.8135 119.311C89.8662 119.292 89.9045 119.316 89.9276 119.381C89.9424 119.424 89.9514 119.458 89.9536 119.481C89.9846 119.617 90.0334 119.778 90.0987 119.963C90.1915 120.225 90.2782 120.427 90.3587 120.57L90.4128 120.698C90.4399 120.756 90.4265 120.794 90.3738 120.813C90.3157 120.834 90.2536 120.785 90.1879 120.667C90.0153 120.367 89.7828 120.148 89.49 120.01C89.1968 119.872 88.9152 119.851 88.6459 119.947C88.3816 120.041 88.2022 120.202 88.109 120.432C88.0152 120.662 88.0217 120.926 88.1278 121.226C88.252 121.574 88.465 121.814 88.7676 121.945C88.9373 122.02 89.2716 122.091 89.7716 122.158C90.3594 122.237 90.8078 122.371 91.1187 122.557C91.4292 122.744 91.644 123.006 91.7642 123.343Z" fill="#EEE8E4"/>
<path d="M22.6202 98.04L24.221 100.304L23.9445 100.499C23.7907 100.308 23.6473 100.161 23.5156 100.057C23.3834 99.9521 23.2892 99.9203 23.2318 99.9604C23.2087 99.977 23.1816 99.999 23.152 100.028C23.1217 100.057 23.0975 100.086 23.0783 100.114L22.1606 101.438L23.5127 103.35C23.7448 103.294 23.9441 103.24 24.1105 103.19C24.277 103.14 24.4301 103.093 24.5694 103.048C24.7048 103.003 24.8117 102.962 24.8911 102.925C24.9702 102.888 25.0316 102.855 25.0756 102.823C25.1792 102.751 25.2031 102.613 25.1456 102.411C25.089 102.21 24.994 102.004 24.8615 101.795L25.1373 101.6L26.5876 103.652L26.3114 103.847C26.2595 103.783 26.1854 103.711 26.0905 103.629C25.9952 103.546 25.9042 103.487 25.8175 103.453C25.6749 103.4 25.546 103.372 25.4294 103.37C25.3135 103.368 25.1688 103.387 24.9962 103.429C24.1102 103.643 23.1191 103.89 22.0227 104.169C20.9255 104.448 19.9492 104.696 19.0925 104.914L18.8751 104.607L22.3512 99.4318C22.4252 99.3221 22.4761 99.221 22.5043 99.1286C22.5317 99.0358 22.5447 98.9253 22.5429 98.7961C22.5379 98.7116 22.5137 98.6134 22.4714 98.5015C22.4296 98.3892 22.3869 98.3003 22.344 98.2346L22.6202 98.04ZM21.9143 101.823L20.3561 104.159L23.0722 103.461L21.9143 101.823Z" fill="#EEE8E4"/>
<path d="M19.1726 90.8647C19.3329 91.2286 19.4138 91.6092 19.4152 92.0059C19.4167 92.4034 19.3372 92.7905 19.1769 93.1678C19.0159 93.5422 18.7711 93.8913 18.4437 94.2148C18.1159 94.5386 17.7046 94.8087 17.2096 95.0242C16.7147 95.2405 16.2327 95.3618 15.7637 95.3885C15.2947 95.4152 14.8568 95.3607 14.4495 95.2242C14.0462 95.0892 13.6884 94.8784 13.3747 94.5921C13.0606 94.3054 12.8147 93.9599 12.6371 93.5566C12.5042 93.2555 12.4226 92.967 12.3909 92.6908C12.3594 92.4143 12.3634 92.1359 12.4024 91.8561L12.028 91.8092L11.8767 91.4655L14.0682 90.4636L14.2235 90.8163C14.0285 90.9564 13.8256 91.1264 13.6141 91.3283C13.4029 91.5297 13.2371 91.7297 13.1169 91.929C12.9794 92.1525 12.8963 92.3836 12.8674 92.6215C12.8385 92.8591 12.8779 93.0999 12.9851 93.3432C13.1075 93.6209 13.2844 93.8523 13.5148 94.0368C13.7455 94.2213 14.0213 94.3473 14.343 94.4155C14.6517 94.4787 15.0098 94.478 15.4149 94.4137C15.8207 94.3494 16.2482 94.2195 16.6962 94.0241C17.0927 93.8512 17.4339 93.6436 17.7209 93.4006C18.0079 93.1573 18.2364 92.8901 18.4061 92.5973C18.5726 92.306 18.6711 92.0048 18.7004 91.6933C18.7296 91.3817 18.6762 91.0712 18.5397 90.7622C18.4379 90.53 18.3065 90.3332 18.1469 90.1704C17.987 90.0079 17.814 89.8819 17.6288 89.792C17.4375 89.7047 17.2367 89.6422 17.0262 89.6043C16.815 89.5668 16.598 89.5548 16.376 89.57L16.3912 89.179C17.1136 89.1573 17.6963 89.2927 18.1386 89.5848C18.5805 89.8765 18.9253 90.3033 19.1726 90.8647Z" fill="#EEE8E4"/>
<path d="M14.9965 77.2939L15.5803 80.0007L15.2492 80.0696C15.1821 79.8346 15.108 79.6429 15.0275 79.4952C14.9467 79.3472 14.8723 79.2807 14.804 79.2948C14.7759 79.301 14.7423 79.3111 14.7033 79.3255C14.664 79.3403 14.63 79.3569 14.6015 79.3757L13.2342 80.2256L13.7274 82.5113C13.9639 82.5514 14.169 82.5814 14.3416 82.6012C14.5152 82.6211 14.6752 82.638 14.8214 82.6521C14.9636 82.664 15.0781 82.6691 15.1658 82.6666C15.2532 82.6644 15.3232 82.6579 15.3756 82.6463C15.5005 82.6207 15.5759 82.5037 15.6027 82.2965C15.6294 82.09 15.6232 81.864 15.5835 81.6196L15.9146 81.5506L16.4439 84.0028L16.1125 84.0717C16.0897 83.9937 16.0504 83.8981 15.9948 83.7847C15.9395 83.6717 15.8789 83.5818 15.8128 83.5161C15.7023 83.4114 15.5944 83.3349 15.4879 83.2865C15.3817 83.2385 15.2405 83.1995 15.0651 83.1691C14.1639 83.0157 13.153 82.85 12.032 82.6723C10.9113 82.4947 9.91305 82.3359 9.03789 82.1965L8.95847 81.8293L14.2008 78.463C14.3127 78.3919 14.399 78.3197 14.4611 78.2453C14.5232 78.1716 14.5788 78.0752 14.6279 77.9565C14.656 77.8767 14.673 77.7774 14.6784 77.6582C14.6831 77.5384 14.6791 77.4402 14.6658 77.3633L14.9965 77.2939ZM12.8559 80.4805L10.4994 82.0044L13.2783 82.4388L12.8559 80.4805Z" fill="#EEE8E4"/>
<path d="M11.1485 65.8766C11.7248 65.8809 12.2244 65.9907 12.6476 66.2066C13.0707 66.4225 13.4173 66.7016 13.6881 67.0439C13.9589 67.3897 14.1607 67.7771 14.2943 68.2064C14.4282 68.6353 14.4946 69.0783 14.495 69.5343V72.2905L14.156 72.2879C14.1563 72.1973 14.1477 72.0793 14.13 71.9341C14.1123 71.7886 14.0924 71.6922 14.0704 71.6453C14.0289 71.5511 13.9675 71.4828 13.8867 71.4399C13.8054 71.3973 13.7076 71.3756 13.5928 71.3741L8.70466 71.3377C8.59635 71.337 8.49923 71.3539 8.4133 71.3893C8.32738 71.4247 8.25914 71.4951 8.20823 71.6012C8.16022 71.6976 8.12556 71.802 8.10281 71.9143C8.08043 72.0265 8.06598 72.1233 8.05985 72.2045L7.72119 72.202V69.296C7.72155 68.8963 7.78401 68.5028 7.91002 68.1161C8.03566 67.7295 8.20498 67.3937 8.41872 67.1078C8.70177 66.7193 9.07256 66.4156 9.53036 66.1972C9.98888 65.9788 10.5279 65.8719 11.1485 65.8766ZM11.1464 67.0251C10.6915 67.0215 10.2802 67.0778 9.91306 67.194C9.54588 67.3099 9.226 67.4811 8.95197 67.7071C8.69094 67.9208 8.48623 68.184 8.3364 68.497C8.18693 68.8104 8.1122 69.1588 8.1122 69.5433C8.1122 69.6711 8.11472 69.8159 8.11942 69.9769C8.12447 70.138 8.12808 70.2575 8.13169 70.3358L13.3353 70.3748C13.6245 70.377 13.8253 70.2954 13.9368 70.1307C14.048 69.9661 14.1033 69.7116 14.1033 69.3679C14.1033 68.9711 14.0318 68.6238 13.8892 68.3255C13.7458 68.0277 13.5473 67.7854 13.2927 67.5991C13.0256 67.4034 12.7165 67.2598 12.3652 67.168C12.0132 67.076 11.6071 67.0283 11.1464 67.0251Z" fill="#EEE8E4"/>
<path d="M8.0631 55.0682C8.10317 55.2177 8.16238 55.4488 8.24145 55.7611C8.32088 56.0741 8.41078 56.4283 8.51259 56.8243L8.30066 56.9265C8.08837 56.5893 7.9129 56.3138 7.7739 56.0994C7.63526 55.8853 7.49193 55.6726 7.34463 55.4614C7.25942 55.3408 7.20274 55.235 7.17494 55.1441C7.14642 55.0534 7.14245 54.9621 7.16194 54.8704C7.18613 54.7541 7.24282 54.6628 7.33199 54.5964C7.42117 54.5296 7.51865 54.5079 7.62407 54.531C7.75802 54.5606 7.85586 54.6234 7.91688 54.7198C7.97753 54.8166 8.02627 54.9329 8.0631 55.0682ZM14.3387 54.4372L16.2648 54.9888L15.1247 60.3827L14.7929 60.3098C14.8062 60.2167 14.8189 60.0917 14.8308 59.9347C14.8427 59.7776 14.8427 59.674 14.8308 59.6231C14.8044 59.5152 14.7578 59.4343 14.6918 59.3794C14.625 59.3249 14.534 59.2848 14.4188 59.2595L9.65564 58.2147C9.55274 58.1923 9.45815 58.1891 9.3715 58.2053C9.28485 58.2216 9.20579 58.2775 9.13322 58.3732C9.07545 58.4468 9.01624 58.5497 8.95558 58.6819C8.89493 58.814 8.85305 58.9205 8.82958 59.0014L8.49815 58.9288L9.56069 53.9014L11.1579 54.2516L11.085 54.5949C10.8359 54.6043 10.5564 54.6812 10.2477 54.8256C9.93869 54.97 9.75204 55.1314 9.68849 55.3091C9.65564 55.4011 9.62278 55.512 9.58849 55.6416C9.55455 55.7716 9.51989 55.9203 9.48415 56.0882L9.26824 57.1092L11.902 57.6869L12.0565 56.9543C12.1064 56.7196 12.1201 56.5427 12.0981 56.4247C12.0757 56.3062 12.0204 56.1943 11.932 56.0889C11.8562 56.0019 11.7475 55.9185 11.6063 55.838C11.4652 55.7575 11.3298 55.695 11.1991 55.6502L11.2716 55.3069L13.8679 55.8763L13.7953 56.2196C13.6433 56.199 13.4787 56.1972 13.3007 56.2142C13.1227 56.2308 12.9902 56.26 12.9032 56.3019C12.7617 56.3698 12.6591 56.46 12.5967 56.5723C12.5338 56.685 12.4815 56.8402 12.4392 57.0388L12.2847 57.7713L14.2708 58.2071C14.4697 58.2508 14.6297 58.2714 14.7506 58.2692C14.8716 58.2671 14.9698 58.2328 15.0456 58.1663C15.1214 58.0999 15.1824 57.9999 15.2283 57.8663C15.2748 57.7327 15.3243 57.5392 15.3785 57.2861C15.3998 57.1854 15.4276 57.0525 15.4626 56.8875C15.4976 56.7225 15.5207 56.5824 15.5323 56.4665C15.5442 56.3481 15.5467 56.2232 15.5399 56.0925C15.5334 55.9618 15.5077 55.864 15.4622 55.8001C15.3424 55.6268 15.1474 55.43 14.8763 55.2091C14.6055 54.9881 14.4026 54.8408 14.2683 54.7668L14.3387 54.4372Z" fill="#EEE8E4"/>
<path d="M21.2797 42.4001L20.0413 45.0552L19.7341 44.9097C19.7756 44.8126 19.8232 44.684 19.8767 44.5248C19.9297 44.3656 19.9536 44.2501 19.9482 44.1789C19.9341 44.0656 19.9012 43.9717 19.8496 43.897C19.798 43.8222 19.7189 43.7601 19.612 43.7096L15.1463 41.5935L15.1164 41.6571L19.3929 46.1856L19.2943 46.3972L13.0436 45.8191L13.018 45.8744L16.6833 47.611C17.0382 47.7789 17.3183 47.885 17.5231 47.9287C17.7281 47.9727 17.892 47.9684 18.0151 47.9164C18.1047 47.8828 18.222 47.7817 18.3675 47.6131C18.5134 47.4442 18.6015 47.3308 18.6318 47.273L18.9394 47.4185L17.8079 49.8451L17.5007 49.6996C17.5483 49.5674 17.5888 49.4234 17.6223 49.2689C17.6556 49.114 17.6588 48.9833 17.6303 48.8771C17.5956 48.7403 17.5036 48.6139 17.353 48.4977C17.2025 48.3818 16.9317 48.2305 16.5392 48.0446L13.3975 46.556C13.2159 46.4697 13.057 46.4206 12.9223 46.4084C12.7873 46.3961 12.6653 46.4123 12.5559 46.4571C12.4367 46.5076 12.3295 46.5878 12.2328 46.6968C12.136 46.8062 12.0555 46.9218 11.9919 47.0431L11.6847 46.8976L12.64 44.8487L18.052 45.3112L14.8813 42.0149C14.7651 41.8943 14.6384 41.7784 14.5019 41.6672C14.365 41.5556 14.2712 41.4867 14.221 41.4589L15.1348 39.4995L15.442 39.645C15.4084 39.7255 15.3738 39.8328 15.3399 39.9663C15.3059 40.1003 15.2853 40.1999 15.2796 40.2664C15.2694 40.3786 15.2965 40.4707 15.3619 40.5429C15.4272 40.6151 15.5074 40.674 15.6023 40.7187L20.0294 42.8164C20.1305 42.8644 20.2233 42.8875 20.3081 42.8868C20.3933 42.8857 20.4839 42.8496 20.5807 42.7781C20.6334 42.7409 20.702 42.6633 20.7868 42.5452C20.8724 42.4268 20.9338 42.3304 20.9724 42.2557L21.2797 42.4001Z" fill="#EEE8E4"/>
<path d="M26.1497 35.3546L24.3644 37.7443L24.0925 37.5396C24.1376 37.4688 24.203 37.3656 24.2878 37.2309C24.3723 37.0959 24.4243 36.9948 24.4427 36.9269C24.4712 36.8197 24.4705 36.7255 24.4409 36.645C24.4117 36.5644 24.3452 36.4857 24.2438 36.4085L20.307 33.4447C20.2171 33.3776 20.1326 33.335 20.0518 33.3169C19.9716 33.2992 19.8727 33.3259 19.7553 33.3978C19.6687 33.4494 19.5698 33.522 19.4582 33.6151C19.3466 33.7086 19.2614 33.7895 19.2022 33.8581L18.9307 33.6534L20.7153 31.2637L20.9868 31.4684C20.932 31.5478 20.8724 31.6475 20.8089 31.767C20.7453 31.8868 20.6966 31.9962 20.6626 32.0951C20.6226 32.2128 20.6247 32.3136 20.6699 32.3981C20.7143 32.4825 20.7789 32.5562 20.863 32.6197L24.7962 35.5803C24.8799 35.6438 24.9687 35.6821 25.0608 35.6947C25.1525 35.7077 25.2504 35.6846 25.354 35.6265C25.4135 35.5893 25.4995 35.521 25.6121 35.4207C25.7248 35.3207 25.8132 35.23 25.8771 35.1499L26.1497 35.3546Z" fill="#EEE8E4"/>
<path d="M32.4989 25.8753L33.7712 27.4296L29.75 31.1761L29.5186 30.9266C29.5825 30.8583 29.6641 30.7637 29.7637 30.6424C29.8633 30.5211 29.9226 30.4366 29.9417 30.3879C29.9814 30.285 29.9897 30.1922 29.9662 30.1095C29.9424 30.0269 29.8904 29.9424 29.8092 29.8554L26.4797 26.2724C26.4075 26.1952 26.3313 26.1381 26.2508 26.102C26.1703 26.0659 26.0724 26.0655 25.958 26.1024C25.8684 26.1294 25.7612 26.1793 25.6359 26.2522C25.5107 26.3255 25.415 26.388 25.3489 26.4407L25.1171 26.1912L28.8654 22.6992L29.9818 23.9008L29.7254 24.139C29.5149 24.0037 29.2402 23.9062 28.9033 23.8466C28.5658 23.7874 28.3203 23.8119 28.1661 23.9206C28.0867 23.9769 27.9961 24.0484 27.8939 24.1351C27.7917 24.2214 27.678 24.3232 27.5527 24.4398L26.7916 25.1485L28.6326 27.1299L29.1792 26.6212C29.3543 26.458 29.4666 26.3215 29.516 26.2125C29.5651 26.1031 29.5839 25.9803 29.5709 25.8435C29.5579 25.7291 29.5167 25.5984 29.446 25.4521C29.3756 25.3059 29.2994 25.177 29.2171 25.0655L29.4734 24.8268L31.2884 26.7804L31.0324 27.019C30.919 26.9151 30.784 26.819 30.6277 26.7306C30.471 26.6425 30.3453 26.5905 30.25 26.5746C30.0944 26.549 29.959 26.5641 29.8428 26.6197C29.7269 26.6753 29.5951 26.7721 29.4467 26.91L28.9008 27.4187L30.2894 28.9131C30.4284 29.0625 30.5482 29.1708 30.649 29.2384C30.7501 29.3059 30.8508 29.334 30.9508 29.3236C31.0515 29.3131 31.1588 29.2662 31.2728 29.1835C31.3873 29.1012 31.5393 28.9719 31.7281 28.7957C31.8032 28.7257 31.9021 28.6333 32.0252 28.5192C32.148 28.4044 32.2473 28.3033 32.3231 28.2155C32.4007 28.1256 32.474 28.0253 32.5437 27.9148C32.6127 27.8043 32.647 27.7104 32.6466 27.6321C32.647 27.422 32.5982 27.1494 32.5015 26.814C32.404 26.4786 32.3213 26.2421 32.2531 26.1045L32.4989 25.8753Z" fill="#EEE8E4"/>
<path d="M46.4047 15.7988C46.66 16.3183 46.7856 16.8151 46.7827 17.2892C46.7798 17.7632 46.686 18.1964 46.5008 18.5889C46.3127 18.9824 46.0567 19.333 45.7325 19.6399C45.4086 19.9471 45.0425 20.2002 44.6335 20.3991L42.1665 21.6003L42.0163 21.2949C42.0975 21.2555 42.1993 21.1963 42.3214 21.1169C42.4438 21.0378 42.5214 20.9783 42.5532 20.9375C42.6189 20.8591 42.6524 20.7746 42.6546 20.6829C42.6564 20.5912 42.6319 20.4941 42.5813 20.3905L40.4176 15.9833C40.3696 15.8858 40.3111 15.806 40.2403 15.7443C40.1707 15.6825 40.0764 15.6518 39.9587 15.6522C39.8508 15.6515 39.7417 15.6656 39.6313 15.6944C39.5208 15.7237 39.4276 15.7533 39.3518 15.7825L39.2016 15.4767L41.8033 14.2102C42.1614 14.0362 42.5412 13.9207 42.9438 13.8654C43.3464 13.8102 43.724 13.8152 44.0749 13.8824C44.5504 13.9676 44.9884 14.1683 45.3898 14.4846C45.792 14.8016 46.1303 15.2395 46.4047 15.7988ZM45.3758 16.2974C45.1747 15.8872 44.9393 15.5428 44.6703 15.2634C44.4013 14.9839 44.1045 14.7705 43.7796 14.6236C43.4709 14.4824 43.1431 14.4131 42.7961 14.4153C42.4488 14.4174 42.1033 14.5023 41.7585 14.6698C41.6441 14.7258 41.5159 14.7908 41.374 14.8655C41.2321 14.9402 41.1267 14.9955 41.0581 15.0323L43.3615 19.724C43.489 19.985 43.6522 20.1294 43.85 20.1576C44.0471 20.1858 44.2999 20.1248 44.6078 19.9753C44.9627 19.8023 45.2418 19.5864 45.4444 19.3283C45.6465 19.0698 45.7736 18.7857 45.8263 18.4759C45.8816 18.1506 45.8711 17.8101 45.7956 17.4545C45.7198 17.0985 45.5801 16.7133 45.3758 16.2974Z" fill="#EEE8E4"/>
<path d="M58.089 13.6954L58.4558 15.667L53.1117 16.9801L53.0287 16.6505C53.1179 16.6219 53.2356 16.579 53.3818 16.5219C53.528 16.4649 53.6211 16.4194 53.6609 16.3865C53.7453 16.3165 53.7977 16.2396 53.8168 16.1558C53.836 16.0721 53.8309 15.9735 53.802 15.8587L52.6088 11.1208C52.5832 11.0186 52.5434 10.9323 52.4904 10.8612C52.4373 10.7904 52.3514 10.7435 52.2329 10.7197C52.1412 10.6995 52.0228 10.6908 51.8773 10.6937C51.7318 10.6969 51.6177 10.7049 51.5343 10.7186L51.4517 10.389L56.4326 9.16504L56.8329 10.7532L56.4925 10.8366C56.3726 10.6164 56.1795 10.3987 55.9116 10.1828C55.643 9.96763 55.4155 9.86979 55.2281 9.88964C55.131 9.90048 55.0169 9.91853 54.8851 9.94416C54.7534 9.9698 54.6046 10.0034 54.4385 10.0442L53.4269 10.2929L54.0865 12.9123L54.8122 12.7339C55.0451 12.6765 55.2097 12.6126 55.3058 12.5411C55.4021 12.47 55.4772 12.3714 55.5328 12.2461C55.5765 12.1404 55.6029 12.0064 55.6119 11.8447C55.6209 11.6829 55.6162 11.5338 55.5978 11.3966L55.9379 11.3132L56.5885 13.8954L56.2481 13.9788C56.1986 13.8329 56.1264 13.6842 56.0322 13.5311C55.9376 13.3787 55.8516 13.2722 55.7758 13.2119C55.6516 13.1141 55.5253 13.0614 55.3964 13.0538C55.2675 13.0458 55.1047 13.0661 54.9082 13.1144L54.1826 13.2932L54.6801 15.2684C54.7299 15.4663 54.783 15.619 54.8389 15.7269C54.8945 15.8345 54.9696 15.9082 55.0628 15.9475C55.1563 15.9869 55.2729 15.9984 55.4133 15.9822C55.5538 15.9656 55.7495 15.9266 56.0008 15.8652C56.1004 15.8406 56.2318 15.8082 56.395 15.7677C56.5586 15.728 56.6947 15.6879 56.8033 15.6479C56.9153 15.6074 57.0283 15.5554 57.1424 15.493C57.2568 15.4305 57.3326 15.3648 57.3702 15.2966C57.4713 15.1139 57.5608 14.8525 57.6377 14.5131C57.7139 14.1737 57.7558 13.9275 57.7623 13.7748L58.089 13.6954Z" fill="#EEE8E4"/>
<path d="M70.4153 11.651C70.5575 11.8102 70.6629 11.9842 70.7315 12.1737C70.8005 12.3633 70.8366 12.5839 70.8388 12.8359C70.8453 13.4352 70.6333 13.9298 70.2033 14.3198C69.7733 14.71 69.2376 14.9054 68.5953 14.9072C68.2989 14.9079 68.0017 14.8617 67.7046 14.7685C67.4071 14.6754 67.15 14.562 66.9338 14.4288L66.7356 14.7783L66.3615 14.7794L66.2723 12.4554L66.6514 12.4543C66.7327 12.7409 66.8262 12.9998 66.933 13.2305C67.0399 13.4612 67.18 13.6768 67.3536 13.8775C67.5176 14.0652 67.7082 14.2143 67.9263 14.3252C68.1443 14.4364 68.3971 14.4913 68.6841 14.4909C68.8989 14.4905 69.087 14.4609 69.2473 14.4032C69.4072 14.3454 69.5365 14.2634 69.6351 14.1577C69.734 14.0522 69.8065 13.9284 69.8538 13.7861C69.9004 13.6443 69.9232 13.4803 69.9217 13.2955C69.9185 13.0244 69.8412 12.7713 69.6888 12.537C69.5369 12.3026 69.3119 12.1254 69.0148 12.0048C68.8112 11.9225 68.5779 11.8318 68.3147 11.7326C68.0519 11.6333 67.8252 11.5394 67.6335 11.4509C67.2576 11.2798 66.9641 11.0552 66.754 10.7769C66.5438 10.4985 66.4366 10.135 66.4319 9.68547C66.4294 9.42732 66.4785 9.18651 66.5792 8.96303C66.6796 8.7399 66.8244 8.54025 67.0125 8.36442C67.1915 8.19798 67.4046 8.06765 67.6501 7.97306C67.8959 7.87847 68.1526 7.83081 68.4209 7.83009C68.7263 7.82936 69.0003 7.8763 69.243 7.97161C69.4856 8.06657 69.7073 8.17741 69.9087 8.30449L70.0968 7.97883L70.4716 7.97811L70.5312 10.2303L70.1521 10.231C70.0813 9.97285 70.0011 9.72626 69.9131 9.4905C69.8253 9.25475 69.7109 9.04137 69.5726 8.85074C69.4365 8.66625 69.2708 8.51895 69.0769 8.40955C68.8823 8.30016 68.6451 8.24564 68.3638 8.24636C68.0674 8.24709 67.8154 8.34493 67.6085 8.54025C67.402 8.73521 67.2995 8.97277 67.302 9.25366C67.3053 9.54683 67.3746 9.78981 67.5107 9.98224C67.6465 10.175 67.8432 10.3332 68.1003 10.4563C68.3288 10.5675 68.5537 10.6632 68.7743 10.744C68.9953 10.8249 69.209 10.9112 69.4159 11.0029C69.604 11.0856 69.7845 11.1791 69.9589 11.2838C70.1333 11.3885 70.286 11.5112 70.4153 11.651Z" fill="#EEE8E4"/>
<path d="M87.3491 12.5865L87.0104 12.493C87.0122 12.2327 86.9497 11.9367 86.8234 11.6049C86.6974 11.2731 86.5454 11.068 86.3696 10.9893C86.2793 10.9514 86.171 10.9117 86.045 10.8698C85.9183 10.8283 85.7738 10.785 85.6114 10.7402L84.5358 10.4434L83.8315 13.0707L84.5701 13.2743C84.7933 13.3361 84.9734 13.3602 85.1099 13.3465C85.2467 13.3332 85.372 13.2895 85.4861 13.2155C85.5644 13.1646 85.6475 13.0743 85.7356 12.9451C85.824 12.8162 85.897 12.6725 85.9562 12.5136L86.2952 12.6071L85.6052 15.1792L85.2662 15.0857C85.2933 14.9481 85.3038 14.7856 85.2973 14.599C85.2904 14.4123 85.2673 14.2722 85.2276 14.1787C85.1669 14.0397 85.0738 13.9307 84.9478 13.8513C84.8218 13.7718 84.6615 13.7054 84.4687 13.6523L83.73 13.4483L83.1267 15.6987C83.0996 15.8001 83.0946 15.8958 83.1126 15.9864C83.1303 16.0771 83.1823 16.1608 83.2686 16.237C83.3079 16.2709 83.3989 16.324 83.5415 16.3962C83.6841 16.4684 83.7939 16.5168 83.8719 16.5417L83.7838 16.8688L81.0045 16.1016L81.0919 15.7745C81.1839 15.7933 81.3074 15.8164 81.4616 15.8442C81.6158 15.872 81.7183 15.8814 81.7696 15.8724C81.8703 15.8572 81.9522 15.816 82.014 15.7489C82.0757 15.6817 82.1216 15.5929 82.1512 15.4824L83.4166 10.7626C83.4437 10.6611 83.4513 10.5665 83.439 10.4792C83.4267 10.3918 83.3747 10.3087 83.2823 10.2308C83.2115 10.1683 83.1115 10.103 82.9834 10.0344C82.8541 9.96576 82.7501 9.91702 82.6707 9.8885L82.7581 9.56104L87.7884 10.9496L87.3491 12.5865Z" fill="#EEE8E4"/>
<path d="M96.5989 22.2327L94.1276 20.9831L94.2785 20.6802C94.5034 20.7763 94.6984 20.8391 94.8634 20.8694C95.0284 20.8997 95.1265 20.8831 95.158 20.8207C95.1702 20.795 95.1829 20.7622 95.1959 20.7225C95.2085 20.6828 95.2168 20.6456 95.2197 20.6116L95.4035 19.0061L93.3163 17.9508C93.139 18.1104 92.9888 18.2515 92.8661 18.3746C92.7437 18.4977 92.6318 18.6118 92.5296 18.7173C92.4325 18.8212 92.3577 18.9079 92.3058 18.9779C92.253 19.0472 92.2155 19.1065 92.1913 19.1548C92.1346 19.2686 92.1787 19.4014 92.3234 19.5531C92.4679 19.7047 92.6477 19.8419 92.8628 19.9647L92.7123 20.2676L90.4735 19.135L90.6244 18.8324C90.6999 18.8635 90.7984 18.8931 90.9208 18.9212C91.0436 18.949 91.1512 18.9584 91.2436 18.948C91.3938 18.9277 91.5201 18.8913 91.6234 18.8382C91.7263 18.7855 91.8447 18.6999 91.9768 18.5815C92.6542 17.9735 93.4087 17.2872 94.2409 16.5225C95.0731 15.7578 95.814 15.0773 96.4649 14.4805L96.8007 14.6498L96.1797 20.873C96.1663 21.0052 96.1692 21.1189 96.188 21.2135C96.2071 21.3088 96.2479 21.4131 96.3108 21.5265C96.3544 21.5987 96.422 21.6745 96.5119 21.7536C96.6018 21.8327 96.6812 21.8915 96.7491 21.9298L96.5989 22.2327ZM95.4399 18.549L95.71 15.7448L93.6517 17.6446L95.4399 18.549Z" fill="#EEE8E4"/>
<path d="M102.999 26.9693C102.687 26.7224 102.438 26.4231 102.25 26.0722C102.062 25.7209 101.951 25.3407 101.914 24.9309C101.881 24.5233 101.932 24.0987 102.068 23.6575C102.204 23.216 102.439 22.7835 102.773 22.3592C103.107 21.9347 103.473 21.6003 103.873 21.3555C104.272 21.1108 104.683 20.953 105.105 20.8822C105.523 20.8122 105.937 20.8299 106.347 20.936C106.757 21.0422 107.136 21.2324 107.482 21.5068C107.739 21.7108 107.947 21.9278 108.104 22.1581C108.262 22.3881 108.389 22.6365 108.486 22.9033L108.837 22.7687L109.132 23.0019L107.675 24.9215L107.373 24.6825C107.479 24.4666 107.577 24.2197 107.669 23.9417C107.76 23.6637 107.812 23.4081 107.824 23.1752C107.84 22.912 107.805 22.6686 107.719 22.4444C107.632 22.2199 107.485 22.0253 107.276 21.8603C107.038 21.6718 106.774 21.5501 106.486 21.4949C106.196 21.44 105.894 21.4584 105.58 21.5494C105.278 21.639 104.964 21.8079 104.638 22.0556C104.311 22.3036 103.997 22.6195 103.695 23.0041C103.428 23.3434 103.225 23.6886 103.086 24.0391C102.948 24.3897 102.873 24.7345 102.861 25.0735C102.851 25.4104 102.907 25.7234 103.026 26.0133C103.147 26.3032 103.339 26.5534 103.604 26.7632C103.803 26.9206 104.011 27.0336 104.228 27.1018C104.445 27.1704 104.656 27.2008 104.861 27.1935C105.07 27.1809 105.276 27.1416 105.479 27.0758C105.682 27.0101 105.878 26.9181 106.067 26.8L106.237 27.1535C105.612 27.5131 105.036 27.6672 104.51 27.617C103.984 27.5661 103.48 27.3502 102.999 26.9693Z" fill="#EEE8E4"/>
<path d="M110.916 34.4571L108.923 32.2089L109.176 31.9847C109.236 32.0436 109.324 32.1288 109.44 32.24C109.555 32.3512 109.645 32.423 109.707 32.4555C109.806 32.5057 109.898 32.5245 109.983 32.5122C110.067 32.4999 110.158 32.4519 110.253 32.3674L113.911 29.1185C113.994 29.0448 114.052 28.9701 114.085 28.895C114.117 28.8199 114.11 28.717 114.063 28.587C114.029 28.4913 113.977 28.379 113.907 28.2502C113.837 28.1213 113.775 28.0205 113.719 27.9487L113.972 27.7241L115.965 29.9723L115.712 30.1965C115.645 30.1261 115.559 30.047 115.455 29.96C115.35 29.873 115.252 29.8023 115.162 29.7485C115.054 29.6846 114.955 29.6658 114.864 29.6921C114.773 29.7185 114.688 29.7669 114.61 29.8362L110.956 33.0816C110.877 33.1513 110.823 33.2296 110.793 33.3173C110.762 33.4051 110.766 33.5054 110.803 33.6195C110.827 33.6856 110.878 33.7842 110.954 33.9156C111.03 34.047 111.102 34.1524 111.168 34.2318L110.916 34.4571Z" fill="#EEE8E4"/>
<path d="M117.587 44.2236L116.144 41.8563L116.433 41.6812C116.574 41.8816 116.706 42.0383 116.831 42.1513C116.956 42.2643 117.048 42.3025 117.108 42.2664C117.132 42.2513 117.16 42.2307 117.192 42.204C117.224 42.1769 117.251 42.1505 117.271 42.1231L118.277 40.8656L117.058 38.8665C116.823 38.907 116.62 38.9463 116.45 38.9853C116.281 39.0239 116.125 39.0608 115.983 39.0958C115.845 39.1319 115.735 39.1651 115.654 39.1962C115.572 39.2272 115.509 39.2568 115.462 39.285C115.354 39.3507 115.321 39.4861 115.365 39.6911C115.408 39.8959 115.488 40.1071 115.606 40.3251L115.317 40.5002L114.01 38.3557L114.299 38.1806C114.347 38.247 114.415 38.3243 114.505 38.4131C114.594 38.5019 114.681 38.5665 114.765 38.6073C114.904 38.6698 115.03 38.7059 115.147 38.7163C115.263 38.7268 115.408 38.7171 115.583 38.6875C116.482 38.5344 117.489 38.356 118.602 38.1524C119.716 37.9495 120.708 37.769 121.577 37.6108L121.773 37.9318L117.951 42.8542C117.869 42.9585 117.812 43.056 117.778 43.1463C117.743 43.2365 117.724 43.3463 117.716 43.4752C117.716 43.5597 117.733 43.6593 117.768 43.7741C117.802 43.8886 117.838 43.9803 117.877 44.0489L117.587 44.2236ZM118.55 40.4995L120.264 38.2766L117.505 38.7864L118.55 40.4995Z" fill="#EEE8E4"/>
<path d="M123.41 53.1475L121.471 53.6959L119.684 48.8021L120.003 48.6876C120.034 48.7558 120.082 48.8544 120.145 48.9829C120.209 49.1115 120.263 49.1978 120.306 49.2422C120.377 49.3165 120.457 49.3599 120.546 49.3729C120.635 49.3859 120.738 49.3711 120.855 49.3292L125.408 47.6911C125.509 47.6547 125.593 47.6052 125.658 47.5435C125.723 47.4817 125.762 47.3922 125.773 47.2749C125.784 47.194 125.785 47.0868 125.774 46.9525C125.764 46.8178 125.748 46.7098 125.725 46.6286L126.043 46.5142L127.008 49.1573L126.689 49.2718C126.656 49.1902 126.602 49.0891 126.528 48.9678C126.453 48.8468 126.395 48.7602 126.352 48.7089C126.28 48.6219 126.194 48.5753 126.093 48.5699C125.993 48.5645 125.894 48.5793 125.796 48.6147L121.525 50.1513C121.328 50.2224 121.178 50.2867 121.076 50.3451C120.974 50.4036 120.905 50.4787 120.872 50.5708C120.843 50.6578 120.844 50.7712 120.877 50.9109C120.909 51.0506 120.97 51.2412 121.058 51.4824C121.097 51.5911 121.142 51.7034 121.191 51.8193C121.239 51.9344 121.292 52.042 121.349 52.1417C121.404 52.2384 121.464 52.3244 121.526 52.3998C121.59 52.4753 121.653 52.5251 121.715 52.5493C121.897 52.6204 122.156 52.6858 122.494 52.7457C122.832 52.8053 123.099 52.8352 123.295 52.8345L123.41 53.1475Z" fill="#EEE8E4"/>
<path d="M123.26 61.7722L122.736 58.8193L123.07 58.7622C123.091 58.8445 123.122 58.963 123.162 59.1178C123.202 59.2727 123.241 59.3807 123.277 59.441C123.336 59.5359 123.405 59.6002 123.483 59.6345C123.562 59.6688 123.663 59.6749 123.789 59.6536L128.62 58.8283C128.73 58.8095 128.819 58.7767 128.886 58.7304C128.954 58.6839 129.001 58.5932 129.029 58.4582C129.05 58.3597 129.065 58.2373 129.073 58.0914C129.08 57.9455 129.08 57.8278 129.07 57.7372L129.404 57.6802L129.928 60.6331L129.594 60.6902C129.574 60.5952 129.542 60.4829 129.498 60.3544C129.454 60.2255 129.408 60.1143 129.359 60.0212C129.301 59.9103 129.226 59.8421 129.134 59.8168C129.042 59.7912 128.945 59.7872 128.841 59.8049L124.015 60.6299C123.911 60.6472 123.824 60.6855 123.752 60.7436C123.68 60.8017 123.63 60.8891 123.602 61.005C123.588 61.0739 123.579 61.1841 123.576 61.3357C123.572 61.487 123.578 61.6141 123.593 61.7162L123.26 61.7722Z" fill="#EEE8E4"/>
<path d="M126.955 71.4842C126.797 71.6243 126.623 71.7279 126.434 71.7947C126.245 71.8615 126.024 71.8944 125.773 71.894C125.175 71.8926 124.68 71.6741 124.29 71.2387C123.9 70.8033 123.703 70.2639 123.7 69.6206C123.698 69.3234 123.744 69.0266 123.836 68.7302C123.928 68.4335 124.041 68.1775 124.174 67.9623L123.824 67.7598L123.822 67.385L126.142 67.3247L126.144 67.7045C125.858 67.7818 125.6 67.8728 125.369 67.9767C125.139 68.0807 124.924 68.2183 124.725 68.3901C124.538 68.5522 124.389 68.7418 124.279 68.9588C124.169 69.1754 124.114 69.4274 124.115 69.7151C124.117 69.931 124.146 70.1191 124.204 70.2802C124.262 70.4412 124.345 70.5719 124.45 70.6723C124.556 70.7723 124.68 70.8466 124.822 70.8957C124.964 70.9445 125.127 70.969 125.312 70.9694C125.583 70.9701 125.835 70.8957 126.069 70.7463C126.302 70.5968 126.478 70.374 126.598 70.0773C126.68 69.8744 126.769 69.6419 126.868 69.3797C126.966 69.1173 127.06 68.8909 127.147 68.7006C127.317 68.3259 127.541 68.0349 127.818 67.828C128.095 67.6211 128.458 67.5179 128.907 67.5193C129.165 67.5197 129.405 67.572 129.628 67.6756C129.851 67.7793 130.051 67.9266 130.227 68.1175C130.393 68.2992 130.524 68.5136 130.619 68.7609C130.714 69.0079 130.763 69.2656 130.764 69.5346C130.765 69.8408 130.719 70.1148 130.624 70.3567C130.53 70.5986 130.42 70.8196 130.294 71.0189L130.619 71.212L130.621 71.5871L128.372 71.6189L128.371 71.2394C128.628 71.1712 128.874 71.0943 129.11 71.0091C129.344 70.9235 129.557 70.8127 129.748 70.6751C129.931 70.5412 130.078 70.3777 130.187 70.1841C130.296 69.9906 130.35 69.7534 130.348 69.4722C130.346 69.1754 130.248 68.9219 130.053 68.7122C129.858 68.5021 129.621 68.397 129.34 68.3963C129.047 68.3955 128.805 68.462 128.613 68.5959C128.421 68.7299 128.264 68.9248 128.141 69.1808C128.03 69.4086 127.936 69.6325 127.855 69.8527C127.775 70.0729 127.69 70.2859 127.598 70.4921C127.516 70.6795 127.424 70.8596 127.32 71.0326C127.216 71.2059 127.094 71.3561 126.955 71.4842Z" fill="#EEE8E4"/>
<path d="M127.232 83.7301L127.291 83.4127C127.409 83.4066 127.552 83.3828 127.72 83.3405C127.889 83.2983 128.05 83.2456 128.204 83.1831C128.365 83.1185 128.51 83.0423 128.638 82.9539C128.766 82.8658 128.848 82.7723 128.882 82.6741C128.912 82.5813 128.944 82.4632 128.977 82.3199C129.01 82.1765 129.038 82.0433 129.061 81.9206L129.111 81.653L123.784 80.6223C123.68 80.6021 123.582 80.6053 123.488 80.6317C123.394 80.6577 123.314 80.7201 123.247 80.8187C123.215 80.8699 123.163 80.9797 123.093 81.1487C123.023 81.318 122.977 81.4512 122.955 81.5487L122.622 81.4841L123.195 78.4008L123.528 78.4654C123.518 78.5524 123.506 78.6857 123.492 78.8658C123.479 79.046 123.479 79.1727 123.495 79.2456C123.517 79.3547 123.562 79.4406 123.629 79.5031C123.697 79.5652 123.795 79.6092 123.923 79.6337L129.292 80.6728L129.342 80.406C129.36 80.3107 129.379 80.1923 129.401 80.0504C129.422 79.9081 129.438 79.7717 129.445 79.6392C129.452 79.5359 129.409 79.4189 129.318 79.2882C129.227 79.1575 129.12 79.033 128.996 78.9138C128.872 78.7947 128.738 78.6839 128.594 78.5831C128.449 78.482 128.327 78.4077 128.229 78.36L128.289 78.0376L130.096 78.3874L129.039 84.0803L127.232 83.7301Z" fill="#EEE8E4"/>
<path d="M120.64 93.8099L118.837 92.9319L120.898 87.8257L121.212 87.9549C121.183 88.0441 121.148 88.1647 121.11 88.3171C121.07 88.4694 121.052 88.5716 121.056 88.6236C121.063 88.7344 121.094 88.8222 121.151 88.8875C121.207 88.9529 121.29 89.0074 121.399 89.0525L125.915 90.91C126.013 90.9498 126.105 90.9693 126.194 90.9685C126.282 90.9674 126.37 90.9266 126.458 90.8447C126.527 90.7822 126.603 90.6916 126.686 90.5721C126.769 90.453 126.829 90.3555 126.867 90.28L127.181 90.4089L125.26 95.1681L123.747 94.5453L123.877 94.2204C124.125 94.2547 124.414 94.228 124.743 94.1392C125.073 94.0511 125.285 93.9247 125.379 93.7612C125.427 93.6767 125.478 93.5731 125.535 93.4518C125.591 93.3297 125.651 93.1893 125.715 93.0304L126.105 92.0639L123.608 91.0371L123.328 91.7303C123.239 91.9527 123.194 92.1246 123.196 92.2444C123.198 92.3647 123.233 92.4842 123.301 92.6037C123.362 92.7022 123.453 92.8037 123.579 92.9073C123.704 93.0109 123.827 93.0958 123.948 93.1629L123.817 93.4879L121.355 92.4751L121.487 92.1502C121.633 92.1971 121.795 92.2275 121.974 92.2419C122.152 92.2564 122.288 92.2506 122.381 92.2249C122.532 92.1827 122.648 92.1119 122.73 92.0123C122.811 91.9123 122.89 91.769 122.966 91.5812L123.245 90.8877L121.363 90.1132C121.174 90.0352 121.02 89.9872 120.9 89.9688C120.781 89.9497 120.678 89.9663 120.592 90.0186C120.505 90.071 120.428 90.1587 120.359 90.2818C120.291 90.4053 120.208 90.5869 120.111 90.8266C120.072 90.922 120.022 91.0476 119.958 91.2036C119.895 91.3599 119.848 91.4938 119.817 91.605C119.784 91.7199 119.76 91.8422 119.744 91.9722C119.727 92.1018 119.736 92.2022 119.769 92.2733C119.857 92.464 120.016 92.6921 120.245 92.9568C120.474 93.2203 120.647 93.4009 120.767 93.4973L120.64 93.8099Z" fill="#EEE8E4"/>
<path d="M116.557 103.006C116.347 103.035 116.144 103.025 115.949 102.976C115.755 102.928 115.551 102.833 115.341 102.694C114.839 102.363 114.545 101.909 114.457 101.332C114.368 100.755 114.5 100.198 114.852 99.662C115.013 99.4143 115.215 99.1934 115.455 98.9977C115.696 98.8024 115.931 98.6518 116.16 98.546L115.979 98.1853L116.183 97.873L118.162 99.1024L117.954 99.4186C117.672 99.3255 117.405 99.2584 117.155 99.2176C116.905 99.1775 116.649 99.1731 116.387 99.2053C116.141 99.2367 115.913 99.3121 115.7 99.4316C115.489 99.5512 115.305 99.7302 115.148 99.97C115.03 100.15 114.952 100.323 114.912 100.488C114.872 100.654 114.869 100.808 114.903 100.949C114.936 101.091 115 101.221 115.091 101.34C115.184 101.459 115.308 101.57 115.462 101.672C115.688 101.822 115.941 101.899 116.219 101.904C116.497 101.909 116.768 101.821 117.032 101.641C117.211 101.517 117.415 101.374 117.641 101.21C117.868 101.047 118.07 100.91 118.249 100.8C118.598 100.583 118.945 100.464 119.292 100.446C119.638 100.427 119.999 100.541 120.375 100.79C120.591 100.932 120.764 101.108 120.894 101.317C121.025 101.527 121.111 101.76 121.154 102.015C121.193 102.258 121.185 102.508 121.129 102.765C121.073 103.023 120.972 103.264 120.825 103.488C120.658 103.744 120.468 103.946 120.256 104.094C120.044 104.244 119.83 104.366 119.614 104.462L119.782 104.802L119.578 105.115L117.674 103.901L117.881 103.585C118.134 103.67 118.384 103.742 118.627 103.801C118.872 103.86 119.111 103.885 119.346 103.876C119.574 103.866 119.787 103.811 119.984 103.71C120.182 103.61 120.357 103.442 120.511 103.207C120.673 102.96 120.729 102.695 120.681 102.413C120.633 102.131 120.492 101.913 120.257 101.758C120.012 101.596 119.771 101.517 119.537 101.523C119.303 101.529 119.064 101.604 118.82 101.748C118.602 101.877 118.399 102.011 118.211 102.149C118.023 102.288 117.834 102.417 117.644 102.538C117.473 102.649 117.295 102.747 117.113 102.833C116.929 102.919 116.744 102.977 116.557 103.006Z" fill="#EEE8E4"/>
<path d="M69.1668 136.834C106.429 136.834 136.635 106.685 136.635 69.4952C136.635 32.3052 106.429 2.15674 69.1668 2.15674C31.905 2.15674 1.69833 32.3052 1.69833 69.4952C1.69833 106.685 31.905 136.834 69.1668 136.834Z" stroke="#EEE8E4" stroke-width="1.3569" stroke-miterlimit="10"/>
<path d="M83.6415 90.118C83.6415 90.5069 83.2993 90.7011 82.6162 90.7011C82.1605 90.7011 81.7511 90.6777 81.3872 90.6325L72.7122 90.3596L64.0375 90.6325C63.718 90.6777 63.3764 90.7011 63.0125 90.7011C62.1016 90.7011 61.6463 90.4632 61.6463 89.9859C61.6463 89.461 62.2615 89.1978 63.4905 89.1978C67.4977 89.1534 69.5014 88.7519 69.5014 87.9933C69.5014 87.9497 69.4552 87.7717 69.3617 87.459L68.8035 85.6513L68.4533 84.6985C68.0432 83.2847 67.0435 80.1635 65.4506 75.3317H50.8491C48.1193 82.6189 46.7553 86.8077 46.7553 87.9002C46.7553 88.5385 47.0282 88.9248 47.5745 89.0627C47.7113 89.1079 48.8496 89.1981 50.9899 89.3353C52.3106 89.3815 52.9709 89.609 52.9709 90.0177C52.9709 90.474 52.3788 90.7019 51.1953 90.7019C49.0998 90.7019 46.6636 90.6101 43.8857 90.4285C43.2026 90.3831 42.4968 90.3603 41.769 90.3603C41.0397 90.3603 40.3338 90.4361 39.6511 90.5874C39.2872 90.6632 38.9915 90.7019 38.7633 90.7019C38.1257 90.7019 37.8065 90.4968 37.8065 90.0845C37.8065 89.6733 38.5243 89.4451 39.9583 89.3992C41.3927 89.3548 42.4282 89.1371 43.0665 88.7486C43.703 88.3605 44.2038 87.6182 44.5684 86.5207C50.4259 69.7064 55.1953 56.2046 58.8724 46.0153C58.9782 45.4781 59.1909 44.8734 59.509 44.2018L59.8014 42.9544C59.9382 42.4544 60.1198 42.2031 60.3484 42.2031C60.4845 42.2031 60.5979 42.34 60.6896 42.6129C61.2806 44.3896 62.6244 48.1007 64.7184 53.7473C66.3579 58.1647 70.4333 69.2532 76.9457 87.0128C77.31 88.0435 77.7761 88.6992 78.3454 88.9808C78.9144 89.2617 80.0882 89.4249 81.8645 89.4714C83.0483 89.5155 83.6415 89.7307 83.6415 90.118ZM65.1361 73.7605C64.3945 71.7119 63.1659 68.3178 61.451 63.5799L58.1688 54.1127C56.2491 59.151 53.9403 65.7006 51.2448 73.7605H65.1361Z" fill="#EEE8E4"/>
<path d="M70.6066 72.8465L70.7441 45.8282C70.6979 45.0061 70.4553 44.4927 70.0177 44.2869C69.5802 44.0818 68.3916 43.9558 66.4554 43.9104C65.7163 43.9104 65.3484 43.6836 65.3484 43.2305C65.3484 42.8186 65.7578 42.6124 66.5778 42.6124H67.6713C67.5789 42.6124 69.7758 42.6124 74.2632 42.6124C78.7469 42.6124 82.4256 42.6124 85.2937 42.6124C92.9892 42.6124 97.7022 42.4759 99.4341 42.2026C99.4785 42.7947 99.615 44.5025 99.8439 47.3251C99.9796 49.2378 100.161 50.9459 100.39 52.4482C100.481 53.0865 100.527 53.6328 100.527 54.0873C100.527 54.726 100.298 55.0437 99.8439 55.0437C99.3872 55.0437 99.0691 54.4679 98.8879 53.3147C98.3409 49.9946 97.2249 47.5738 95.5403 46.051C94.4478 45.0837 92.7621 44.484 90.4858 44.2533C89.6662 44.162 87.8444 44.1147 85.0214 44.1147C82.9256 44.1147 80.4214 44.1837 77.5075 44.3201V64.4018C83.3361 64.447 86.9335 64.0715 88.3004 63.2743C89.6666 62.4782 90.4861 60.2351 90.7594 56.546C90.85 55.499 91.1234 54.9748 91.579 54.9748C92.0339 54.9748 92.2624 55.3167 92.2624 55.9997C92.2624 56.4095 92.2393 56.7507 92.1945 57.0244C92.0581 60.1661 91.9902 63.0808 91.9902 65.7673C91.9902 69.2278 92.0621 71.9606 92.2083 73.9647C92.2451 74.147 92.2628 74.4203 92.2628 74.7842C92.2628 75.3305 92.0357 75.6034 91.5826 75.6034C91.2201 75.6034 90.9923 75.4673 90.902 75.194C90.8111 74.9211 90.6529 73.8733 90.4273 72.0512C90.0648 69.2755 89.3503 67.544 88.2849 66.8609C87.2194 66.1778 85.1001 65.8362 81.9284 65.8362C80.2499 65.8362 78.7769 65.8825 77.5086 65.9734V72.9408V86.3288C77.5086 87.6499 77.7501 88.5174 78.7845 88.8814C79.2806 89.0641 80.5037 89.5258 82.2158 89.48C82.935 89.48 83.8101 89.8385 83.6509 90.2381C83.4986 90.6183 83.0816 90.6523 82.1703 90.6523L81.1063 90.5447C80.4691 90.5447 79.7004 90.492 78.6076 90.492C77.5595 90.492 76.4717 90.3855 76.1081 90.3855" fill="#EEE8E4"/>
<path d="M107.288 114.009C108.965 114.009 108.965 111.409 107.288 111.409C105.611 111.409 105.611 114.009 107.288 114.009Z" fill="#EEE8E4"/>
<path d="M30.6298 114.009C32.3065 114.009 32.3065 111.409 30.6298 111.409C28.9531 111.409 28.9531 114.009 30.6298 114.009Z" fill="#EEE8E4"/>
</svg>
