<svg width="204" height="196" viewBox="0 0 204 196" fill="none" xmlns="http://www.w3.org/2000/svg">
<path d="M56.5698 0H4.64292C3.16169 0 2 1.16169 2 2.64292V152.732C2 154.213 3.16169 155.374 4.64292 155.374C6.28391 155.374 7.52143 154.237 7.52143 152.732V83.2953H56.5671C80.7677 83.2953 98.3312 65.7318 98.3312 41.5312C98.3339 18.6304 79.5979 0 56.5698 0ZM56.5698 77.7712H7.75972V5.52413H56.5698C66.2777 5.52413 75.3898 9.27188 82.2245 16.0742C89.0512 22.8683 92.8098 31.9073 92.8098 41.5285C92.8098 62.8668 77.9081 77.7712 56.5698 77.7712Z" fill="black"/>
<path d="M84.7836 116.963C84.7836 94.9048 102.759 76.9297 124.817 76.9297C146.876 76.9297 164.854 94.9048 164.854 116.963C164.854 139.025 146.879 157 124.82 157C102.761 157 84.7836 139.025 84.7836 116.963ZM90.1751 116.963C90.1751 136.084 105.7 151.606 124.817 151.606C143.935 151.606 159.46 136.084 159.46 116.963C159.46 97.8456 143.935 82.3211 124.817 82.3211C105.7 82.3211 90.1751 97.8456 90.1751 116.963Z" fill="black"/>
<path d="M183.966 157C180.638 157 177.946 154.306 177.946 150.978C177.946 147.652 180.641 144.801 183.966 144.801C187.451 144.801 190.145 147.652 190.145 150.978C190.145 154.306 187.451 157 183.966 157Z" fill="black"/>
<path d="M1.89 191V178.4H7.2C8.544 178.4 9.726 178.664 10.746 179.192C11.778 179.72 12.576 180.458 13.14 181.406C13.716 182.354 14.004 183.452 14.004 184.7C14.004 185.948 13.716 187.046 13.14 187.994C12.576 188.942 11.778 189.68 10.746 190.208C9.726 190.736 8.544 191 7.2 191H1.89ZM3.69 189.434H7.092C8.136 189.434 9.036 189.236 9.792 188.84C10.56 188.444 11.154 187.892 11.574 187.184C11.994 186.464 12.204 185.636 12.204 184.7C12.204 183.752 11.994 182.924 11.574 182.216C11.154 181.508 10.56 180.956 9.792 180.56C9.036 180.164 8.136 179.966 7.092 179.966H3.69V189.434ZM20.7571 191.108C19.7371 191.108 18.8371 190.898 18.0571 190.478C17.2891 190.058 16.6891 189.482 16.2571 188.75C15.8371 188.018 15.6271 187.178 15.6271 186.23C15.6271 185.282 15.8311 184.442 16.2391 183.71C16.6591 182.978 17.2291 182.408 17.9491 182C18.6811 181.58 19.5031 181.37 20.4151 181.37C21.3391 181.37 22.1551 181.574 22.8631 181.982C23.5711 182.39 24.1231 182.966 24.5191 183.71C24.9271 184.442 25.1311 185.3 25.1311 186.284C25.1311 186.356 25.1251 186.44 25.1131 186.536C25.1131 186.632 25.1071 186.722 25.0951 186.806H16.9771V185.564H24.1951L23.4931 185.996C23.5051 185.384 23.3791 184.838 23.1151 184.358C22.8511 183.878 22.4851 183.506 22.0171 183.242C21.5611 182.966 21.0271 182.828 20.4151 182.828C19.8151 182.828 19.2811 182.966 18.8131 183.242C18.3451 183.506 17.9791 183.884 17.7151 184.376C17.4511 184.856 17.3191 185.408 17.3191 186.032V186.32C17.3191 186.956 17.4631 187.526 17.7511 188.03C18.0511 188.522 18.4651 188.906 18.9931 189.182C19.5211 189.458 20.1271 189.596 20.8111 189.596C21.3751 189.596 21.8851 189.5 22.3411 189.308C22.8091 189.116 23.2171 188.828 23.5651 188.444L24.5191 189.56C24.0871 190.064 23.5471 190.448 22.8991 190.712C22.2631 190.976 21.5491 191.108 20.7571 191.108ZM19.0471 180.074L21.4951 177.734H23.6911L20.6671 180.074H19.0471ZM31.6886 191.108C30.7166 191.108 29.8466 190.898 29.0786 190.478C28.3226 190.058 27.7286 189.482 27.2966 188.75C26.8646 188.018 26.6486 187.178 26.6486 186.23C26.6486 185.282 26.8646 184.442 27.2966 183.71C27.7286 182.978 28.3226 182.408 29.0786 182C29.8466 181.58 30.7166 181.37 31.6886 181.37C32.5526 181.37 33.3206 181.544 33.9926 181.892C34.6766 182.228 35.2046 182.732 35.5766 183.404L34.2626 184.25C33.9506 183.782 33.5666 183.44 33.1106 183.224C32.6666 182.996 32.1866 182.882 31.6706 182.882C31.0466 182.882 30.4886 183.02 29.9966 183.296C29.5046 183.572 29.1146 183.962 28.8266 184.466C28.5386 184.958 28.3946 185.546 28.3946 186.23C28.3946 186.914 28.5386 187.508 28.8266 188.012C29.1146 188.516 29.5046 188.906 29.9966 189.182C30.4886 189.458 31.0466 189.596 31.6706 189.596C32.1866 189.596 32.6666 189.488 33.1106 189.272C33.5666 189.044 33.9506 188.696 34.2626 188.228L35.5766 189.056C35.2046 189.716 34.6766 190.226 33.9926 190.586C33.3206 190.934 32.5526 191.108 31.6886 191.108ZM41.7592 191.108C40.7992 191.108 39.9472 190.898 39.2032 190.478C38.4592 190.058 37.8712 189.482 37.4392 188.75C37.0072 188.006 36.7912 187.166 36.7912 186.23C36.7912 185.282 37.0072 184.442 37.4392 183.71C37.8712 182.978 38.4592 182.408 39.2032 182C39.9472 181.58 40.7992 181.37 41.7592 181.37C42.7072 181.37 43.5532 181.58 44.2972 182C45.0532 182.408 45.6412 182.978 46.0612 183.71C46.4932 184.43 46.7092 185.27 46.7092 186.23C46.7092 187.178 46.4932 188.018 46.0612 188.75C45.6412 189.482 45.0532 190.058 44.2972 190.478C43.5532 190.898 42.7072 191.108 41.7592 191.108ZM41.7592 189.596C42.3712 189.596 42.9172 189.458 43.3972 189.182C43.8892 188.906 44.2732 188.516 44.5492 188.012C44.8252 187.496 44.9632 186.902 44.9632 186.23C44.9632 185.546 44.8252 184.958 44.5492 184.466C44.2732 183.962 43.8892 183.572 43.3972 183.296C42.9172 183.02 42.3712 182.882 41.7592 182.882C41.1472 182.882 40.6012 183.02 40.1212 183.296C39.6412 183.572 39.2572 183.962 38.9692 184.466C38.6812 184.958 38.5372 185.546 38.5372 186.23C38.5372 186.902 38.6812 187.496 38.9692 188.012C39.2572 188.516 39.6412 188.906 40.1212 189.182C40.6012 189.458 41.1472 189.596 41.7592 189.596ZM53.1129 191.108C52.2969 191.108 51.5769 190.958 50.9529 190.658C50.3409 190.358 49.8609 189.902 49.5129 189.29C49.1769 188.666 49.0089 187.886 49.0089 186.95V181.46H50.7369V186.752C50.7369 187.688 50.9589 188.39 51.4029 188.858C51.8589 189.326 52.4949 189.56 53.3109 189.56C53.9109 189.56 54.4329 189.44 54.8769 189.2C55.3209 188.948 55.6629 188.588 55.9029 188.12C56.1429 187.64 56.2629 187.064 56.2629 186.392V181.46H57.9909V191H56.3529V188.426L56.6229 189.11C56.3109 189.746 55.8429 190.238 55.2189 190.586C54.5949 190.934 53.8929 191.108 53.1129 191.108ZM63.7826 191L59.6066 181.46H61.4066L65.1146 190.1H64.2506L68.0306 181.46H69.7226L65.5466 191H63.7826ZM71.3353 191V181.46H72.9913V184.052L72.8293 183.404C73.0933 182.744 73.5373 182.24 74.1613 181.892C74.7853 181.544 75.5533 181.37 76.4653 181.37V183.044C76.3933 183.032 76.3213 183.026 76.2493 183.026C76.1893 183.026 76.1293 183.026 76.0693 183.026C75.1453 183.026 74.4133 183.302 73.8733 183.854C73.3333 184.406 73.0633 185.204 73.0633 186.248V191H71.3353ZM82.7551 191.108C81.7351 191.108 80.8351 190.898 80.0551 190.478C79.2871 190.058 78.6871 189.482 78.2551 188.75C77.8351 188.018 77.6251 187.178 77.6251 186.23C77.6251 185.282 77.8291 184.442 78.2371 183.71C78.6571 182.978 79.2271 182.408 79.9471 182C80.6791 181.58 81.5011 181.37 82.4131 181.37C83.3371 181.37 84.1531 181.574 84.8611 181.982C85.5691 182.39 86.1211 182.966 86.5171 183.71C86.9251 184.442 87.1291 185.3 87.1291 186.284C87.1291 186.356 87.1231 186.44 87.1111 186.536C87.1111 186.632 87.1051 186.722 87.0931 186.806H78.9751V185.564H86.1931L85.4911 185.996C85.5031 185.384 85.3771 184.838 85.1131 184.358C84.8491 183.878 84.4831 183.506 84.0151 183.242C83.5591 182.966 83.0251 182.828 82.4131 182.828C81.8131 182.828 81.2791 182.966 80.8111 183.242C80.3431 183.506 79.9771 183.884 79.7131 184.376C79.4491 184.856 79.3171 185.408 79.3171 186.032V186.32C79.3171 186.956 79.4611 187.526 79.7491 188.03C80.0491 188.522 80.4631 188.906 80.9911 189.182C81.5191 189.458 82.1251 189.596 82.8091 189.596C83.3731 189.596 83.8831 189.5 84.3391 189.308C84.8071 189.116 85.2151 188.828 85.5631 188.444L86.5171 189.56C86.0851 190.064 85.5451 190.448 84.8971 190.712C84.2611 190.976 83.5471 191.108 82.7551 191.108ZM88.5227 191V189.884L94.6427 182.288L94.9847 182.882H88.6307V181.46H96.3707V182.594L90.2507 190.172L89.8547 189.578H96.5147V191H88.5227ZM106.163 191L101.987 181.46H103.787L107.495 190.1H106.631L110.411 181.46H112.103L107.927 191H106.163ZM117.538 191.108C116.578 191.108 115.726 190.898 114.982 190.478C114.238 190.058 113.65 189.482 113.218 188.75C112.786 188.006 112.57 187.166 112.57 186.23C112.57 185.282 112.786 184.442 113.218 183.71C113.65 182.978 114.238 182.408 114.982 182C115.726 181.58 116.578 181.37 117.538 181.37C118.486 181.37 119.332 181.58 120.076 182C120.832 182.408 121.42 182.978 121.84 183.71C122.272 184.43 122.488 185.27 122.488 186.23C122.488 187.178 122.272 188.018 121.84 188.75C121.42 189.482 120.832 190.058 120.076 190.478C119.332 190.898 118.486 191.108 117.538 191.108ZM117.538 189.596C118.15 189.596 118.696 189.458 119.176 189.182C119.668 188.906 120.052 188.516 120.328 188.012C120.604 187.496 120.742 186.902 120.742 186.23C120.742 185.546 120.604 184.958 120.328 184.466C120.052 183.962 119.668 183.572 119.176 183.296C118.696 183.02 118.15 182.882 117.538 182.882C116.926 182.882 116.38 183.02 115.9 183.296C115.42 183.572 115.036 183.962 114.748 184.466C114.46 184.958 114.316 185.546 114.316 186.23C114.316 186.902 114.46 187.496 114.748 188.012C115.036 188.516 115.42 188.906 115.9 189.182C116.38 189.458 116.926 189.596 117.538 189.596ZM128.154 191.108C127.194 191.108 126.45 190.85 125.922 190.334C125.394 189.818 125.13 189.08 125.13 188.12V179.372H126.858V188.048C126.858 188.564 126.984 188.96 127.236 189.236C127.5 189.512 127.872 189.65 128.352 189.65C128.892 189.65 129.342 189.5 129.702 189.2L130.242 190.442C129.978 190.67 129.66 190.838 129.288 190.946C128.928 191.054 128.55 191.108 128.154 191.108ZM123.51 182.882V181.46H129.594V182.882H123.51ZM132.331 191V181.46H133.987V184.052L133.825 183.404C134.089 182.744 134.533 182.24 135.157 181.892C135.781 181.544 136.549 181.37 137.461 181.37V183.044C137.389 183.032 137.317 183.026 137.245 183.026C137.185 183.026 137.125 183.026 137.065 183.026C136.141 183.026 135.409 183.302 134.869 183.854C134.329 184.406 134.059 185.204 134.059 186.248V191H132.331ZM143.751 191.108C142.731 191.108 141.831 190.898 141.051 190.478C140.283 190.058 139.683 189.482 139.251 188.75C138.831 188.018 138.621 187.178 138.621 186.23C138.621 185.282 138.825 184.442 139.233 183.71C139.653 182.978 140.223 182.408 140.943 182C141.675 181.58 142.497 181.37 143.409 181.37C144.333 181.37 145.149 181.574 145.857 181.982C146.565 182.39 147.117 182.966 147.513 183.71C147.921 184.442 148.125 185.3 148.125 186.284C148.125 186.356 148.119 186.44 148.107 186.536C148.107 186.632 148.101 186.722 148.089 186.806H139.971V185.564H147.189L146.487 185.996C146.499 185.384 146.373 184.838 146.109 184.358C145.845 183.878 145.479 183.506 145.011 183.242C144.555 182.966 144.021 182.828 143.409 182.828C142.809 182.828 142.275 182.966 141.807 183.242C141.339 183.506 140.973 183.884 140.709 184.376C140.445 184.856 140.313 185.408 140.313 186.032V186.32C140.313 186.956 140.457 187.526 140.745 188.03C141.045 188.522 141.459 188.906 141.987 189.182C142.515 189.458 143.121 189.596 143.805 189.596C144.369 189.596 144.879 189.5 145.335 189.308C145.803 189.116 146.211 188.828 146.559 188.444L147.513 189.56C147.081 190.064 146.541 190.448 145.893 190.712C145.257 190.976 144.543 191.108 143.751 191.108ZM160.417 191.108C159.625 191.108 158.899 190.928 158.239 190.568C157.591 190.196 157.069 189.65 156.673 188.93C156.289 188.21 156.097 187.31 156.097 186.23C156.097 185.15 156.283 184.25 156.655 183.53C157.039 182.81 157.555 182.27 158.203 181.91C158.863 181.55 159.601 181.37 160.417 181.37C161.353 181.37 162.181 181.574 162.901 181.982C163.621 182.39 164.191 182.96 164.611 183.692C165.031 184.412 165.241 185.258 165.241 186.23C165.241 187.202 165.031 188.054 164.611 188.786C164.191 189.518 163.621 190.088 162.901 190.496C162.181 190.904 161.353 191.108 160.417 191.108ZM155.359 194.492V181.46H157.015V184.034L156.907 186.248L157.087 188.462V194.492H155.359ZM160.273 189.596C160.885 189.596 161.431 189.458 161.911 189.182C162.403 188.906 162.787 188.516 163.063 188.012C163.351 187.496 163.495 186.902 163.495 186.23C163.495 185.546 163.351 184.958 163.063 184.466C162.787 183.962 162.403 183.572 161.911 183.296C161.431 183.02 160.885 182.882 160.273 182.882C159.673 182.882 159.127 183.02 158.635 183.296C158.155 183.572 157.771 183.962 157.483 184.466C157.207 184.958 157.069 185.546 157.069 186.23C157.069 186.902 157.207 187.496 157.483 188.012C157.771 188.516 158.155 188.906 158.635 189.182C159.127 189.458 159.673 189.596 160.273 189.596ZM171.876 191.108C170.856 191.108 169.956 190.898 169.176 190.478C168.408 190.058 167.808 189.482 167.376 188.75C166.956 188.018 166.746 187.178 166.746 186.23C166.746 185.282 166.95 184.442 167.358 183.71C167.778 182.978 168.348 182.408 169.068 182C169.8 181.58 170.622 181.37 171.534 181.37C172.458 181.37 173.274 181.574 173.982 181.982C174.69 182.39 175.242 182.966 175.638 183.71C176.046 184.442 176.25 185.3 176.25 186.284C176.25 186.356 176.244 186.44 176.232 186.536C176.232 186.632 176.226 186.722 176.214 186.806H168.096V185.564H175.314L174.612 185.996C174.624 185.384 174.498 184.838 174.234 184.358C173.97 183.878 173.604 183.506 173.136 183.242C172.68 182.966 172.146 182.828 171.534 182.828C170.934 182.828 170.4 182.966 169.932 183.242C169.464 183.506 169.098 183.884 168.834 184.376C168.57 184.856 168.438 185.408 168.438 186.032V186.32C168.438 186.956 168.582 187.526 168.87 188.03C169.17 188.522 169.584 188.906 170.112 189.182C170.64 189.458 171.246 189.596 171.93 189.596C172.494 189.596 173.004 189.5 173.46 189.308C173.928 189.116 174.336 188.828 174.684 188.444L175.638 189.56C175.206 190.064 174.666 190.448 174.018 190.712C173.382 190.976 172.668 191.108 171.876 191.108ZM184.308 191V188.984L184.218 188.606V185.168C184.218 184.436 184.002 183.872 183.57 183.476C183.15 183.068 182.514 182.864 181.662 182.864C181.098 182.864 180.546 182.96 180.006 183.152C179.466 183.332 179.01 183.578 178.638 183.89L177.918 182.594C178.41 182.198 178.998 181.898 179.682 181.694C180.378 181.478 181.104 181.37 181.86 181.37C183.168 181.37 184.176 181.688 184.884 182.324C185.592 182.96 185.946 183.932 185.946 185.24V191H184.308ZM181.176 191.108C180.468 191.108 179.844 190.988 179.304 190.748C178.776 190.508 178.368 190.178 178.08 189.758C177.792 189.326 177.648 188.84 177.648 188.3C177.648 187.784 177.768 187.316 178.008 186.896C178.26 186.476 178.662 186.14 179.214 185.888C179.778 185.636 180.534 185.51 181.482 185.51H184.506V186.752H181.554C180.69 186.752 180.108 186.896 179.808 187.184C179.508 187.472 179.358 187.82 179.358 188.228C179.358 188.696 179.544 189.074 179.916 189.362C180.288 189.638 180.804 189.776 181.464 189.776C182.112 189.776 182.676 189.632 183.156 189.344C183.648 189.056 184.002 188.636 184.218 188.084L184.56 189.272C184.332 189.836 183.93 190.286 183.354 190.622C182.778 190.946 182.052 191.108 181.176 191.108ZM193.158 191.108C192.342 191.108 191.622 190.958 190.998 190.658C190.386 190.358 189.906 189.902 189.558 189.29C189.222 188.666 189.054 187.886 189.054 186.95V181.46H190.782V186.752C190.782 187.688 191.004 188.39 191.448 188.858C191.904 189.326 192.54 189.56 193.356 189.56C193.956 189.56 194.478 189.44 194.922 189.2C195.366 188.948 195.708 188.588 195.948 188.12C196.188 187.64 196.308 187.064 196.308 186.392V181.46H198.036V191H196.398V188.426L196.668 189.11C196.356 189.746 195.888 190.238 195.264 190.586C194.64 190.934 193.938 191.108 193.158 191.108ZM201.74 191.108C201.404 191.108 201.116 190.994 200.875 190.766C200.636 190.526 200.516 190.226 200.516 189.866C200.516 189.506 200.636 189.212 200.875 188.984C201.116 188.756 201.404 188.642 201.74 188.642C202.064 188.642 202.34 188.756 202.568 188.984C202.808 189.212 202.928 189.506 202.928 189.866C202.928 190.226 202.808 190.526 202.568 190.766C202.34 190.994 202.064 191.108 201.74 191.108Z" fill="black"/>
</svg>
