<svg width="81" height="58" viewBox="0 0 81 58" fill="none" xmlns="http://www.w3.org/2000/svg">
<rect x="0.5" y="0.5" width="80" height="57" stroke="black"/>
<path d="M45.9939 43.3908C45.6036 43.3908 45.2133 43.2451 44.9051 42.9328C44.3093 42.3291 44.3093 41.3298 44.9051 40.7261L56.2866 29.1928L44.9051 17.6595C44.3093 17.0558 44.3093 16.0565 44.9051 15.4528C45.5009 14.8491 46.487 14.8491 47.0828 15.4528L59.5532 28.0894C60.149 28.6932 60.149 29.6924 59.5532 30.2962L47.0828 42.9328C46.7746 43.2451 46.3843 43.3908 45.9939 43.3908Z" fill="black"/>
<path d="M58.1169 30.7546H23.5408C22.6985 30.7546 22 30.0467 22 29.193C22 28.3393 22.6985 27.6313 23.5408 27.6313H58.1169C58.9592 27.6313 59.6577 28.3393 59.6577 29.193C59.6577 30.0467 58.9592 30.7546 58.1169 30.7546Z" fill="black"/>
</svg>
