<svg width="57" height="51" viewBox="0 0 57 51" fill="none" xmlns="http://www.w3.org/2000/svg">
<path d="M9.99865 27.1759C9.99561 27.1596 9.99285 27.1431 9.99039 27.1266L6.51311 6.38464C6.16956 4.33534 4.3861 2.83333 2.29634 2.83333H1.42498C0.637985 2.83333 0 2.19907 0 1.41667C0 0.634263 0.637985 0 1.42498 0H2.29634C5.69297 0 8.60409 2.38083 9.27734 5.66667H55.5742C56.5209 5.66667 57.2044 6.56753 56.9443 7.47252L51.2444 27.3059C51.0696 27.914 50.5105 28.3333 49.8742 28.3333H13.082L13.4366 30.4487C13.7801 32.498 15.5636 34 17.6534 34H49.8742C50.6612 34 51.2992 34.6343 51.2992 35.4167C51.2992 36.1991 50.6612 36.8333 49.8742 36.8333H17.6534C14.1704 36.8333 11.198 34.33 10.6254 30.9145L9.99865 27.1759ZM9.75701 8.5L12.607 25.5H48.7994L53.685 8.5H9.75701ZM17.0997 51C13.9518 51 11.3998 48.4629 11.3998 45.3333C11.3998 42.2037 13.9518 39.6667 17.0997 39.6667C20.2477 39.6667 22.7997 42.2037 22.7997 45.3333C22.7997 48.4629 20.2477 51 17.0997 51ZM17.0997 48.1667C18.6737 48.1667 19.9497 46.8981 19.9497 45.3333C19.9497 43.7685 18.6737 42.5 17.0997 42.5C15.5258 42.5 14.2498 43.7685 14.2498 45.3333C14.2498 46.8981 15.5258 48.1667 17.0997 48.1667ZM42.7493 51C39.6014 51 37.0494 48.4629 37.0494 45.3333C37.0494 42.2037 39.6014 39.6667 42.7493 39.6667C45.8973 39.6667 48.4493 42.2037 48.4493 45.3333C48.4493 48.4629 45.8973 51 42.7493 51ZM42.7493 48.1667C44.3233 48.1667 45.5993 46.8981 45.5993 45.3333C45.5993 43.7685 44.3233 42.5 42.7493 42.5C41.1754 42.5 39.8994 43.7685 39.8994 45.3333C39.8994 46.8981 41.1754 48.1667 42.7493 48.1667Z" fill="#264C4D"/>
</svg>
