<svg width="138" height="136" viewBox="0 0 138 136" fill="none" xmlns="http://www.w3.org/2000/svg">
<g clip-path="url(#clip0_25_1512)">
<path d="M105.661 27.6138C103.54 31.9111 72.592 63.9244 71.6113 64.6747C70.3114 65.6865 69.0684 65.6638 67.7 64.743C65.4536 63.2423 35.6004 36.3106 31.5181 28.546C28.0288 22.8846 29.6252 16.9389 32.647 13.7785C39.3862 8.23071 47.8587 12.8122 50.4472 15.0745C55.9549 19.8947 66.1606 43.6887 68.4641 49.2137C68.6351 49.6571 68.7605 49.9868 69.1824 49.9982C69.4903 49.9641 69.5131 49.623 69.707 49.1569C71.828 43.143 74.6559 25.1355 90.4834 12.096C94.5999 8.29893 103.004 9.4585 106.813 14.256C108.455 16.4955 110.427 20.2698 105.661 27.6138Z" fill="#E4DDD3"/>
<path d="M75.3857 86.2519C76.0699 86.2747 76.5374 86.1155 76.8567 85.4448C77.1874 84.7627 77.1532 84.0692 77.1532 83.2507C77.1874 82.5572 77.1874 81.7501 76.6287 81.0793C76.0129 80.3404 75.0322 80.329 74.6331 81.1362C74.0059 82.4435 73.8349 83.8418 74.1656 85.2743C74.3138 85.854 74.6901 86.2292 75.3857 86.2519Z" fill="#E4DDD3"/>
<path d="M61.3714 81.113C60.7784 81.7042 60.9723 82.4204 60.9152 83.1025C60.8468 83.8642 60.9266 84.6031 61.2231 85.3193C61.4398 85.8309 61.7591 86.2288 62.3634 86.2174C62.9678 86.2061 63.2643 85.7968 63.4695 85.2739C63.9941 83.9779 63.823 82.6705 63.4011 81.4086C63.1046 80.4878 62.0898 80.4082 61.3714 81.113Z" fill="#E4DDD3"/>
<path d="M107.588 6.33196C102.616 3.12607 95.6832 1.61408 90.6088 4.13786C80.6654 9.90163 73.6639 20.5765 70.8701 31.6948C70.5508 34.1163 68.8404 34.014 68.3956 31.763C64.4844 21.8271 59.4328 11.0385 49.7744 5.5248C47.2543 3.92186 42.8756 2.30755 37.4135 2.60313C34.2548 2.77365 24.1061 8.185 24.1745 17.8027C24.1745 36.1626 40.8686 47.0308 52.477 58.8994C56.8443 62.5145 60.8354 66.5617 65.1914 70.1882C65.4765 70.4156 65.8185 70.6884 65.6817 71.1318C61.3828 72.2118 57.4943 75.2471 55.0312 79.1237C51.006 86.4904 45.8176 86.4677 46.3763 92.7431C46.4105 93.7548 45.829 94.3005 44.8711 94.4597C42.2712 95.3578 40.3327 96.1649 39.6371 98.4727C41.1765 97.2336 46.7298 94.3346 47.3798 96.6083C47.7105 97.1881 47.0035 97.5405 46.3763 98.0294C44.3009 99.5982 39.5003 100.451 40.7318 103.873C41.9405 101.849 44.0045 101.11 45.8176 100.064C47.8473 98.8933 48.292 99.0525 49.6262 100.985C50.9375 102.884 52.6024 104.452 54.5637 105.612C64.9975 110.853 68.0307 99.1207 70.7333 102.224C74.2568 105.839 80.3461 108.306 84.9643 105.623C92.9123 100.053 87.2107 95.2441 99.5032 103.475C99.0357 100.098 95.0446 99.0752 92.5131 97.586C91.0421 97.0403 91.5439 95.0281 93.5166 95.4715C97.1542 95.7329 100.598 96.9607 102.172 97.9839C99.4576 93.0841 93.9727 95.2441 93.2657 93.0955C93.8929 90.1965 92.4447 86.8997 89.9703 86.0016C86.0932 84.7966 83.3679 72.5073 74.6217 71.7229C73.8805 71.541 72.7972 71.8139 72.5692 70.6315C81.1671 63.4695 103.221 42.6881 105.878 39.5276C110.564 33.366 113.54 27.227 114.213 20.1786H114.202C114.373 17.473 115.137 11.9479 107.588 6.33196ZM73.527 74.5309C76.7541 74.9856 79.2742 76.4863 81.418 78.8054C82.6495 80.1355 83.5503 81.6702 84.3942 83.2618C85.5117 85.3536 87.2791 86.8429 89.1492 88.2412C90.3124 89.1165 91.4641 90.0488 91.8404 91.6062C92.114 92.7544 91.7948 93.1637 90.6658 92.9477C88.408 92.8681 86.5037 92.8567 84.417 92.7772C83.9608 92.7544 83.5047 92.8908 83.4933 93.4365C83.4705 94.0732 83.9722 94.2437 84.474 94.1755C86.5721 94.1868 87.7809 94.4711 89.8106 94.7666C90.415 94.6984 90.8483 94.9826 90.8141 95.6534C90.7799 96.3468 90.2781 96.5174 89.708 96.4491C88.6817 96.3241 87.6554 96.1536 86.6406 95.9489C85.6143 95.7329 84.5994 95.5283 83.5503 95.6079C83.0258 95.642 82.41 95.5738 82.353 96.29C82.296 96.9153 82.8775 96.9153 83.3223 97.0858C84.6678 97.1881 85.8652 97.1654 87.1081 97.5746C88.8299 98.1203 89.0352 98.4841 87.9747 99.9051C86.1958 102.304 83.824 103.998 80.8592 104.043C77.9058 104.1 75.1007 103.054 72.7744 101.065C71.1096 99.5414 70.1973 96.8698 72.113 94.8121C72.592 94.2892 73.0253 93.7321 73.47 93.1751C73.8121 92.7544 73.8349 92.3111 73.5042 91.8791C73.1849 91.4584 72.3867 91.2652 72.0446 91.7426C70.357 93.5502 69.0228 93.0841 67.4264 91.9132C66.765 91.5494 66.0922 91.5153 65.6247 92.1292C65.2028 92.6976 65.5221 93.3342 65.887 93.8344C66.1834 94.2551 66.5826 94.6075 66.9589 94.9713C68.9544 96.9721 68.7149 99.0525 66.6054 100.974C64.6212 102.793 62.3406 103.77 59.7749 104.123C56.1259 104.612 53.5032 102.702 51.3366 100.076C49.82 98.2454 49.9113 98.0976 52.3629 97.6769C53.4348 97.495 56.4452 97.2904 56.8443 97.0858C57.2662 96.8698 57.5399 96.5742 57.4487 96.0854C57.3461 95.5624 56.9013 95.6306 56.5364 95.6306C54.0506 96.1536 52.3059 96.5401 50.1735 96.9153C49.3981 97.0517 48.8964 96.9494 48.4175 96.3923C48.1438 95.3464 48.349 94.903 49.0332 94.7894C51.3366 94.5734 53.6059 94.0504 55.9435 94.2096C56.4566 94.2437 57.1066 94.0845 57.1066 93.5275C57.0838 93.0841 56.3768 93.1182 55.9549 93.0841C55.3391 93.0386 50.8121 93.2433 49.1815 93.5843C47.9841 93.698 47.1061 91.2311 49.0446 88.821C53.1953 85.5582 55.0198 82.1591 57.882 78.7031C59.9688 76.1793 62.7853 74.8833 66.0238 74.6218C68.5211 74.4059 70.9955 74.1785 73.527 74.5309ZM112.286 24.9875C108.648 36.0375 99.0357 43.4384 90.9167 51.2143C85.6143 55.9891 80.4145 60.9912 75.1349 65.6522C73.3218 67.3006 70.4026 71.4273 68.293 69.9267C61.2687 63.8901 54.3014 57.8307 47.6306 51.3849C39.2152 43.2792 30.8681 38.9479 25.771 24.0553C25.0982 21.0995 24.4596 16.5294 26.0674 13.0961C28.348 7.84395 35.6118 4.54712 41.7809 5.62712C56.947 8.62837 66.8448 24.2485 69.114 38.6409C72.1587 31.2174 74.2568 23.4982 79.5821 17.2342C85.7283 9.75384 96.0709 1.28439 105.832 7.55974C111.34 11.6296 115.011 15.8018 112.286 24.9875Z" fill="#E4DDD3"/>
<path d="M77.1646 83.2505C77.1646 84.069 77.1988 84.7625 76.8681 85.4446C76.5488 86.1153 76.0813 86.2745 75.3971 86.2518C74.7015 86.229 74.3138 85.8539 74.1884 85.2741C73.8577 83.853 74.0288 82.4433 74.6559 81.136C75.055 80.3175 76.0357 80.3402 76.6515 81.0791C77.1988 81.7499 77.1988 82.557 77.1646 83.2505Z" fill="#E4DDD3"/>
<path d="M60.9152 83.1025C60.9723 82.4204 60.7784 81.7042 61.3714 81.113C62.0898 80.4082 63.1046 80.4878 63.4125 81.42C63.823 82.6819 63.9941 83.9779 63.4809 85.2852C63.2757 85.7968 62.9792 86.2061 62.3748 86.2288C61.7705 86.2402 61.4512 85.8423 61.2345 85.3307C60.9266 84.6145 60.8468 83.8642 60.9152 83.1025Z" fill="#E4DDD3"/>
<path d="M9.01983 131.202C7.37779 131.202 6.08924 130.657 5.15419 129.565C4.21914 128.474 3.76302 127.019 3.76302 125.188C3.76302 124.393 3.88845 123.642 4.13932 122.949C4.39018 122.255 4.75508 121.63 5.23401 121.062C5.69014 120.516 6.26029 120.084 6.94447 119.743C7.62866 119.402 8.36986 119.243 9.17948 119.243C10.297 119.243 11.1978 119.504 11.9048 120.038C12.6004 120.573 12.9539 121.3 12.9539 122.221C12.9539 122.608 12.8627 122.949 12.6802 123.233C12.4978 123.529 12.1899 123.676 11.768 123.676C11.3119 123.676 10.9584 123.563 10.7189 123.335C10.468 123.108 10.3426 122.846 10.3426 122.562C10.3426 122.221 10.3882 121.869 10.4794 121.505C10.5707 121.141 10.6277 120.88 10.6391 120.709C10.5022 120.47 10.297 120.311 10.0233 120.232C9.74963 120.152 9.45315 120.107 9.14527 120.107C8.78037 120.107 8.42687 120.186 8.09618 120.345C7.76549 120.505 7.43481 120.789 7.12692 121.209C6.84185 121.596 6.61378 122.108 6.44274 122.756C6.27169 123.404 6.18047 124.188 6.18047 125.086C6.18047 126.507 6.49975 127.678 7.12692 128.576C7.75409 129.474 8.58652 129.929 9.61279 129.929C10.354 129.929 10.9812 129.747 11.4829 129.383C11.9846 129.019 12.4522 128.474 12.8855 127.758L13.6267 128.235C13.1249 129.145 12.4522 129.849 11.6197 130.384C10.7531 130.941 9.89787 131.202 9.01983 131.202Z" fill="#E4DDD3"/>
<path d="M24.357 121.028C24.357 121.414 24.2657 121.767 24.0719 122.062C23.878 122.369 23.5816 122.517 23.1824 122.517C22.7491 122.517 22.4184 122.403 22.2018 122.187C21.9737 121.96 21.8597 121.721 21.8597 121.448C21.8597 121.278 21.8711 121.13 21.9053 120.993C21.9281 120.857 21.9623 120.721 21.9851 120.584C21.6202 120.584 21.1983 120.732 20.7194 121.016C20.2405 121.312 19.8299 121.721 19.4879 122.255V128.849C19.4879 129.122 19.5449 129.338 19.6475 129.508C19.7501 129.679 19.9098 129.804 20.1378 129.884C20.3317 129.963 20.5825 130.02 20.879 130.054C21.1869 130.088 21.4492 130.122 21.6658 130.134V130.895H15.6678V130.134C15.8389 130.122 16.0213 130.1 16.2152 130.088C16.409 130.077 16.5687 130.043 16.7055 129.997C16.9222 129.929 17.0818 129.804 17.1844 129.633C17.2871 129.463 17.3441 129.236 17.3441 128.963V121.971C17.3441 121.732 17.2871 121.505 17.173 121.278C17.059 121.05 16.9108 120.868 16.7055 120.721C16.5573 120.63 16.3862 120.561 16.1924 120.516C15.9985 120.471 15.7819 120.448 15.5424 120.425V119.663L19.3168 119.413L19.4764 119.572V121.164H19.5335C20.0124 120.539 20.5369 120.073 21.1185 119.754C21.7 119.436 22.236 119.277 22.7149 119.277C23.1939 119.277 23.593 119.436 23.9008 119.743C24.2087 120.084 24.357 120.505 24.357 121.028Z" fill="#E4DDD3"/>
<path d="M38.6906 130.691L34.9846 130.941L34.8136 130.781V129.349H34.7452C34.5627 129.542 34.3575 129.747 34.1294 129.963C33.9013 130.179 33.6391 130.384 33.3312 130.554C32.9891 130.759 32.647 130.918 32.3277 131.02C32.0084 131.123 31.5523 131.179 30.9593 131.179C29.9559 131.179 29.1919 130.85 28.6673 130.202C28.1428 129.542 27.8805 128.599 27.8805 127.348V121.925C27.8805 121.653 27.8235 121.414 27.7209 121.232C27.6182 121.039 27.4586 120.88 27.2647 120.743C27.1279 120.652 26.9569 120.584 26.7402 120.539C26.5349 120.493 26.3069 120.47 26.0788 120.448V119.686L29.8646 119.413L30.0357 119.572V127.439C30.0357 128.258 30.2181 128.872 30.5944 129.292C30.9593 129.701 31.4041 129.917 31.9172 129.917C32.3391 129.917 32.7154 129.849 33.0461 129.724C33.3768 129.599 33.6505 129.44 33.8785 129.269C34.0838 129.11 34.2662 128.94 34.4259 128.758C34.5855 128.576 34.6996 128.417 34.7908 128.258V121.846C34.7908 121.596 34.7338 121.368 34.6311 121.175C34.5285 120.982 34.3689 120.811 34.1864 120.675C34.0496 120.584 33.8443 120.527 33.5706 120.504C33.297 120.482 32.9891 120.47 32.6584 120.448V119.686L36.7977 119.413L36.9688 119.572V128.553C36.9688 128.815 37.0258 129.031 37.1284 129.213C37.231 129.395 37.3907 129.554 37.5731 129.679C37.71 129.758 37.881 129.815 38.0635 129.849C38.2573 129.872 38.4626 129.895 38.702 129.906V130.691H38.6906Z" fill="#E4DDD3"/>
<path d="M51.3594 128.235C50.8805 129.144 50.2419 129.861 49.4437 130.395C48.6455 130.929 47.7219 131.202 46.6842 131.202C45.7719 131.202 44.9737 131.043 44.2781 130.725C43.5939 130.406 43.0238 129.963 42.5791 129.417C42.1344 128.86 41.8037 128.224 41.587 127.485C41.3703 126.746 41.2563 125.973 41.2563 125.154C41.2563 124.415 41.3703 123.699 41.6098 122.983C41.8493 122.278 42.1914 121.641 42.6361 121.073C43.0694 120.527 43.6168 120.095 44.2667 119.754C44.9167 119.424 45.6465 119.254 46.4561 119.254C47.2885 119.254 47.9955 119.379 48.5885 119.64C49.1815 119.902 49.6604 120.254 50.0253 120.709C50.3788 121.141 50.641 121.641 50.8121 122.221C50.9831 122.801 51.0744 123.437 51.0744 124.12V124.881H43.5483C43.5483 125.632 43.6168 126.302 43.765 126.905C43.9018 127.507 44.1299 128.042 44.4378 128.508C44.7343 128.951 45.1334 129.304 45.6123 129.565C46.0912 129.827 46.6728 129.952 47.3456 129.952C48.0297 129.952 48.6227 129.792 49.113 129.474C49.6034 129.156 50.0823 128.576 50.5498 127.746L51.3594 128.235ZM48.8166 123.915C48.8166 123.483 48.7823 123.028 48.7025 122.539C48.6227 122.051 48.5087 121.641 48.349 121.312C48.178 120.959 47.9271 120.675 47.6192 120.459C47.3113 120.232 46.9122 120.129 46.4333 120.129C45.6237 120.129 44.9509 120.459 44.4264 121.13C43.8904 121.8 43.6054 122.733 43.5597 123.915H48.8166Z" fill="#E4DDD3"/>
<path d="M59.182 130.895H53.6401V130.134C53.8111 130.122 54.005 130.099 54.2102 130.077C54.4155 130.054 54.5751 130.031 54.7006 129.986C54.9172 129.918 55.0769 129.793 55.1795 129.622C55.2821 129.451 55.3391 129.224 55.3391 128.951V115.844C55.3391 115.571 55.2821 115.309 55.1567 115.07C55.0426 114.832 54.883 114.638 54.6892 114.502C54.5523 114.411 54.3014 114.332 53.9251 114.252C53.5602 114.172 53.2638 114.127 53.0357 114.116V113.377L57.3119 113.126L57.4715 113.297V128.838C57.4715 129.11 57.5171 129.326 57.6197 129.497C57.7224 129.667 57.882 129.804 58.0987 129.895C58.2697 129.974 58.4294 130.031 58.6004 130.065C58.7601 130.099 58.9539 130.134 59.1592 130.145V130.895H59.182Z" fill="#E4DDD3"/>
<path d="M68.8061 130.406C68.3044 130.611 67.8369 130.793 67.3922 130.929C66.9474 131.066 66.4001 131.145 65.7501 131.145C64.7923 131.145 64.1309 130.907 63.7432 130.429C63.3555 129.952 63.1616 129.27 63.1616 128.406V120.732H61.1091V119.629H63.2072V116.105H65.3054V119.629H68.5667V120.732H65.3282V127.064C65.3282 127.542 65.351 127.939 65.3852 128.258C65.4194 128.576 65.4993 128.849 65.6361 129.088C65.7615 129.315 65.944 129.474 66.1948 129.588C66.4457 129.702 66.7764 129.758 67.1869 129.758C67.3808 129.758 67.6658 129.736 68.0307 129.702C68.3956 129.667 68.6693 129.622 68.8175 129.565V130.406H68.8061Z" fill="#E4DDD3"/>
<path d="M70.2543 134.601C70.2543 134.215 70.357 133.908 70.5736 133.669C70.7903 133.43 71.0526 133.305 71.3604 133.305C71.6113 133.305 71.8166 133.351 71.999 133.442C72.1701 133.533 72.3297 133.658 72.4665 133.794C72.5806 133.908 72.706 134.067 72.8314 134.26C72.9569 134.453 73.0709 134.624 73.1393 134.749C73.527 134.544 73.9831 133.999 74.5191 133.135C75.055 132.259 75.4427 131.498 75.6822 130.838C74.9524 129.019 74.291 127.405 73.6981 125.973C73.1051 124.54 72.4893 123.062 71.8394 121.528C71.6911 121.175 71.4517 120.902 71.0982 120.709C70.7561 120.516 70.4026 120.391 70.0605 120.334V119.572H75.2489V120.379C75.0208 120.391 74.7472 120.436 74.4165 120.527C74.0972 120.618 73.9375 120.72 73.9375 120.834C73.9375 120.88 73.9603 120.959 73.9945 121.062C74.0288 121.164 74.0744 121.278 74.12 121.391C74.4165 122.153 74.8612 123.244 75.4541 124.665C76.0471 126.098 76.5146 127.235 76.8453 128.099C77.1874 127.28 77.5523 126.427 77.9286 125.552C78.3049 124.677 78.7154 123.642 79.183 122.448C79.24 122.301 79.3084 122.107 79.411 121.846C79.5136 121.596 79.5592 121.368 79.5592 121.187C79.5592 120.982 79.3882 120.8 79.0347 120.63C78.6812 120.459 78.3505 120.357 78.0426 120.311V119.572H82.2618V120.288C82.0337 120.323 81.7258 120.459 81.3495 120.686C80.9732 120.914 80.6882 121.232 80.5057 121.641C79.5935 123.756 78.7838 125.677 78.0654 127.416C77.3471 129.156 76.8111 130.429 76.4462 131.259C75.9673 132.328 75.534 133.169 75.1463 133.771C74.77 134.374 74.3937 134.84 74.0288 135.192C73.6753 135.511 73.356 135.727 73.0709 135.84C72.7858 135.954 72.4893 136.011 72.1815 136.011C71.5771 136.011 71.1096 135.875 70.7675 135.59C70.4254 135.295 70.2543 134.965 70.2543 134.601Z" fill="#E4DDD3"/>
<path d="M94.6455 115.07C94.6455 115.264 94.6113 115.468 94.5543 115.707C94.4973 115.934 94.3947 116.128 94.2578 116.298C94.0982 116.492 93.9157 116.639 93.7219 116.73C93.5166 116.833 93.2201 116.878 92.821 116.878C92.2167 116.878 91.7377 116.662 91.3956 116.241C91.0535 115.821 90.6772 115.116 90.2895 114.138C89.9817 114.263 89.7308 114.604 89.5369 115.15C89.3431 115.696 89.2519 116.855 89.2519 118.652V119.561H92.4333V120.811H89.2747V128.713C89.2747 129.008 89.3431 129.247 89.4799 129.406C89.6168 129.565 89.7992 129.69 90.0159 129.77C90.1983 129.827 90.4378 129.895 90.7457 129.952C91.0421 130.009 91.3158 130.054 91.5553 130.077V130.918H83.767V130.077C83.9722 130.065 84.1661 130.043 84.3485 130.02C84.531 129.997 84.702 129.963 84.8503 129.906C85.1011 129.815 85.2608 129.679 85.352 129.508C85.4432 129.338 85.4888 129.11 85.4888 128.826V120.811H83.1512V119.561H85.4888C85.4888 118.742 85.6029 117.947 85.8423 117.185C86.0818 116.423 86.4467 115.73 86.9484 115.127C87.4274 114.536 88.0659 114.047 88.8642 113.684C89.651 113.32 90.586 113.126 91.6579 113.126C92.6158 113.126 93.3456 113.308 93.8701 113.661C94.3946 114.013 94.6455 114.491 94.6455 115.07Z" fill="#E4DDD3"/>
<path d="M105.684 121.607C105.684 122.187 105.501 122.699 105.148 123.142C104.783 123.585 104.315 123.801 103.722 123.801C103.164 123.801 102.685 123.665 102.297 123.381C101.909 123.097 101.715 122.687 101.715 122.13C101.715 121.857 101.738 121.653 101.772 121.505C101.807 121.357 101.841 121.221 101.875 121.084C101.522 121.096 101.145 121.221 100.758 121.448C100.37 121.676 100.016 121.982 99.7199 122.358V128.667C99.7199 128.94 99.7655 129.156 99.8453 129.338C99.9251 129.52 100.073 129.656 100.267 129.747C100.438 129.827 100.712 129.906 101.088 129.963C101.465 130.02 101.738 130.054 101.909 130.065V130.907H94.2008V130.065C94.3946 130.054 94.5885 130.031 94.7823 129.997C94.9762 129.974 95.1472 129.929 95.2841 129.883C95.5349 129.804 95.6946 129.667 95.7858 129.497C95.877 129.326 95.9226 129.088 95.9226 128.803V122.119C95.9226 121.846 95.8542 121.596 95.7288 121.38C95.6034 121.164 95.4437 120.982 95.2613 120.857C95.1244 120.766 94.9534 120.686 94.7367 120.63C94.5201 120.573 94.292 120.527 94.0411 120.505V119.663L99.5374 119.368L99.7085 119.538V121.209H99.7541C100.279 120.596 100.849 120.118 101.442 119.766C102.035 119.413 102.662 119.243 103.3 119.243C104.019 119.243 104.589 119.459 105.022 119.902C105.467 120.345 105.684 120.914 105.684 121.607Z" fill="#E4DDD3"/>
<path d="M120.052 128.156C119.778 128.588 119.459 129.008 119.071 129.395C118.683 129.781 118.261 130.111 117.771 130.384C117.258 130.679 116.733 130.895 116.209 131.043C115.684 131.191 115.08 131.271 114.396 131.271C113.255 131.271 112.275 131.111 111.454 130.793C110.633 130.475 109.948 130.043 109.412 129.497C108.877 128.951 108.477 128.315 108.204 127.576C107.941 126.837 107.805 126.03 107.805 125.166C107.805 124.381 107.953 123.631 108.238 122.915C108.523 122.199 108.934 121.562 109.47 121.005C109.994 120.459 110.644 120.016 111.442 119.686C112.24 119.357 113.13 119.186 114.111 119.186C115.182 119.186 116.072 119.311 116.756 119.573C117.452 119.834 118.022 120.198 118.478 120.653C118.911 121.085 119.231 121.608 119.436 122.199C119.641 122.79 119.732 123.415 119.732 124.063V124.813H111.944C111.944 126.382 112.252 127.576 112.856 128.394C113.461 129.213 114.43 129.622 115.753 129.622C116.471 129.622 117.121 129.429 117.703 129.031C118.284 128.633 118.774 128.133 119.174 127.53L120.052 128.156ZM115.65 123.79C115.65 123.335 115.627 122.858 115.582 122.381C115.536 121.903 115.456 121.505 115.342 121.198C115.217 120.834 115.034 120.562 114.806 120.38C114.578 120.198 114.293 120.107 113.951 120.107C113.358 120.107 112.89 120.402 112.537 121.005C112.183 121.608 111.99 122.551 111.955 123.847L115.65 123.79Z" fill="#E4DDD3"/>
<path d="M134.727 128.156C134.454 128.588 134.134 129.008 133.758 129.395C133.382 129.781 132.948 130.111 132.458 130.384C131.945 130.679 131.42 130.895 130.896 131.043C130.371 131.191 129.767 131.271 129.083 131.271C127.942 131.271 126.962 131.111 126.141 130.793C125.32 130.475 124.636 130.043 124.1 129.497C123.564 128.951 123.165 128.315 122.891 127.576C122.629 126.837 122.492 126.03 122.492 125.166C122.492 124.381 122.64 123.631 122.925 122.915C123.21 122.199 123.621 121.562 124.157 121.005C124.681 120.459 125.343 120.016 126.129 119.686C126.916 119.357 127.817 119.186 128.798 119.186C129.87 119.186 130.759 119.311 131.443 119.573C132.139 119.834 132.709 120.198 133.165 120.653C133.598 121.085 133.918 121.608 134.123 122.199C134.328 122.79 134.419 123.415 134.419 124.063V124.813H126.631C126.631 126.382 126.939 127.576 127.543 128.394C128.148 129.213 129.117 129.622 130.44 129.622C131.158 129.622 131.808 129.429 132.39 129.031C132.971 128.633 133.462 128.133 133.861 127.53L134.727 128.156ZM130.326 123.79C130.326 123.335 130.303 122.858 130.257 122.381C130.212 121.903 130.132 121.505 130.018 121.198C129.892 120.834 129.71 120.562 129.482 120.38C129.254 120.198 128.969 120.107 128.627 120.107C128.034 120.107 127.566 120.402 127.213 121.005C126.859 121.608 126.665 122.551 126.631 123.847L130.326 123.79Z" fill="#E4DDD3"/>
</g>
<defs>
<clipPath id="clip0_25_1512">
<rect width="138" height="136" fill="white"/>
</clipPath>
</defs>
</svg>
