<svg width="48" height="49" viewBox="0 0 48 49" fill="none" xmlns="http://www.w3.org/2000/svg">
<path d="M33.6699 17.1315C33.4621 16.5862 33.1439 16.091 32.7357 15.6778C32.3276 15.2647 31.8385 14.9427 31.3002 14.7327C30.5588 14.4545 29.7758 14.3074 28.9853 14.298C27.6708 14.2373 27.2766 14.2221 23.9466 14.2221C20.6165 14.2221 20.2224 14.2373 18.9078 14.298C18.1165 14.3071 17.3326 14.4542 16.5905 14.7327C16.0523 14.9433 15.5636 15.2657 15.1559 15.6793C14.7482 16.0929 14.4305 16.5885 14.2233 17.134C13.9487 17.8852 13.8036 18.6787 13.7942 19.4797C13.7344 20.8118 13.7194 21.2112 13.7194 24.5857C13.7194 27.9601 13.7344 28.3595 13.7942 29.6916C13.8033 30.4935 13.9484 31.2878 14.2233 32.0398C14.4311 32.5852 14.7493 33.0804 15.1574 33.4935C15.5656 33.9067 16.0546 34.2286 16.593 34.4386C17.3343 34.7168 18.1173 34.8639 18.9078 34.8734C20.2224 34.934 20.6165 34.9467 23.9466 34.9467C27.2766 34.9467 27.6708 34.934 28.9853 34.8708C29.7765 34.8625 30.5604 34.7163 31.3026 34.4386C31.8408 34.228 32.3295 33.9056 32.7372 33.492C33.1449 33.0784 33.4626 32.5829 33.6699 32.0373C33.9444 31.2861 34.0896 30.4926 34.0989 29.6916C34.1588 28.3595 34.1712 27.9601 34.1712 24.5857C34.1712 21.2112 34.1588 20.8118 34.0964 19.4797C34.0882 18.678 33.9439 17.8837 33.6699 17.1315ZM23.9466 31.0768C22.6796 31.0768 21.4412 30.6961 20.3877 29.9828C19.3343 29.2696 18.5133 28.2558 18.0285 27.0697C17.5436 25.8836 17.4168 24.5785 17.6639 23.3193C17.9111 22.0602 18.5212 20.9036 19.417 19.9958C20.3129 19.088 21.4543 18.4697 22.6969 18.2193C23.9395 17.9688 25.2274 18.0974 26.3979 18.5887C27.5684 19.08 28.5688 19.9119 29.2727 20.9794C29.9766 22.0469 30.3523 23.3018 30.3523 24.5857C30.3523 26.3072 29.6774 27.9583 28.4761 29.1756C27.2748 30.3929 25.6455 31.0768 23.9466 31.0768ZM30.6042 19.3559C30.3082 19.3559 30.0188 19.2669 29.7727 19.1003C29.5266 18.9336 29.3348 18.6968 29.2215 18.4196C29.1082 18.1425 29.0786 17.8376 29.1363 17.5434C29.1941 17.2492 29.3366 16.979 29.5459 16.7668C29.7552 16.5547 30.0219 16.4103 30.3122 16.3518C30.6025 16.2933 30.9035 16.3233 31.177 16.4381C31.4504 16.5529 31.6842 16.7473 31.8486 16.9967C32.0131 17.2461 32.1009 17.5393 32.1009 17.8393C32.1009 18.2415 31.9432 18.6272 31.6625 18.9117C31.3818 19.1961 31.0011 19.3559 30.6042 19.3559ZM28.1048 24.5857C28.1048 25.4191 27.8609 26.2337 27.404 26.9267C26.9471 27.6196 26.2977 28.1597 25.5378 28.4786C24.778 28.7975 23.942 28.8809 23.1353 28.7184C22.3287 28.5558 21.5878 28.1545 21.0063 27.5652C20.4247 26.9759 20.0287 26.2251 19.8682 25.4077C19.7078 24.5903 19.7901 23.7431 20.1049 22.9732C20.4196 22.2032 20.9526 21.5451 21.6364 21.0821C22.3202 20.6191 23.1241 20.372 23.9466 20.372C25.0494 20.372 26.1071 20.8159 26.8869 21.6062C27.6667 22.3964 28.1048 23.4681 28.1048 24.5857ZM23.9466 0.319824C19.2104 0.319824 14.5806 1.74299 10.6426 4.40936C6.70458 7.07572 3.63529 10.8655 1.82283 15.2995C0.0103756 19.7335 -0.463846 24.6126 0.460137 29.3197C1.38412 34.0268 3.66481 38.3506 7.01379 41.7442C10.3628 45.1378 14.6296 47.4489 19.2748 48.3852C23.92 49.3215 28.7349 48.841 33.1105 47.0044C37.4862 45.1678 41.2261 42.0575 43.8574 38.067C46.4887 34.0765 47.8931 29.385 47.8931 24.5857C47.8931 18.15 45.3702 11.9779 40.8793 7.42712C36.3885 2.8764 30.2976 0.319824 23.9466 0.319824ZM36.3439 29.7952C36.3228 30.8441 36.1263 31.8816 35.7627 32.8639C35.4423 33.7032 34.9525 34.4656 34.3245 35.1019C33.6965 35.7383 32.9442 36.2347 32.1158 36.5593C31.1473 36.9275 30.1243 37.1266 29.0901 37.1483C27.7581 37.209 27.334 37.2241 23.9466 37.2241C20.5591 37.2241 20.1351 37.209 18.803 37.1483C17.7689 37.1266 16.7458 36.9275 15.7773 36.5593C14.9489 36.2347 14.1967 35.7383 13.5687 35.1019C12.9407 34.4656 12.4508 33.7032 12.1304 32.8639C11.7672 31.8824 11.5706 30.8457 11.5492 29.7978C11.4894 28.448 11.4744 28.0183 11.4744 24.5857C11.4744 21.1531 11.4894 20.7234 11.5492 19.3736C11.5698 18.3257 11.7655 17.289 12.1279 16.3075C12.4483 15.4674 12.9384 14.7044 13.5669 14.0676C14.1953 13.4307 14.9482 12.9341 15.7773 12.6095C16.7459 12.2422 17.769 12.0439 18.803 12.023C20.1351 11.9624 20.5591 11.9472 23.9466 11.9472C27.334 11.9472 27.7581 11.9624 29.0901 12.023C30.1241 12.0439 31.1472 12.2422 32.1158 12.6095C32.9444 12.9344 33.6969 13.4312 34.3249 14.068C34.9529 14.7048 35.4426 15.4676 35.7627 16.3075C36.126 17.2889 36.3225 18.3256 36.3439 19.3736C36.4038 20.7234 36.4187 21.1531 36.4187 24.5857C36.4187 28.0183 36.4038 28.4455 36.3439 29.7952Z" fill="#264C4D"/>
</svg>
