<svg width="49" height="49" viewBox="0 0 49 49" fill="none" xmlns="http://www.w3.org/2000/svg">
<circle cx="24.0408" cy="24.0408" r="24.0408" fill="#264C4D"/>
<path d="M25.0796 10.0228C26.5246 10 27.9586 10.0114 29.3926 10C29.4809 11.7442 30.0875 13.5226 31.323 14.7537C32.5584 16.0191 34.3013 16.6005 36 16.7943V21.3885C34.4116 21.3315 32.8121 20.9895 31.3671 20.2827C30.7384 19.9863 30.1537 19.6101 29.5801 19.2225C29.5691 22.5512 29.5912 25.88 29.5581 29.1974C29.4698 30.7933 28.9624 32.3779 28.0689 33.6889C26.6239 35.8777 24.1199 37.3027 21.5498 37.3483C19.9724 37.4395 18.395 36.9949 17.0493 36.1741C14.8211 34.8175 13.2547 32.3323 13.0231 29.6648C13.001 29.0948 12.99 28.5248 13.012 27.9662C13.2106 25.8002 14.2475 23.7254 15.8579 22.3118C17.689 20.6703 20.2482 19.8837 22.6418 20.3511C22.6639 22.0382 22.5977 23.7254 22.5977 25.4126C21.5057 25.0478 20.2261 25.1504 19.2664 25.8344C18.5715 26.3018 18.042 27.02 17.7663 27.8294C17.5346 28.4108 17.6008 29.0492 17.6118 29.6648C17.8766 31.5343 19.6194 33.1075 21.4726 32.9365C22.708 32.9251 23.8883 32.1841 24.5281 31.1011C24.7377 30.7249 24.9693 30.3373 24.9803 29.8928C25.0906 27.8522 25.0465 25.823 25.0575 23.7824C25.0686 19.1883 25.0465 14.6055 25.0796 10.0228Z" fill="#E4DDD3"/>
</svg>
